<svg xmlns="http://www.w3.org/2000/svg" width="24" height="24" viewBox="0 0 24 24">
    <g fill="none" fill-rule="evenodd">
        <g fill="#98A0A7">
            <g>
                <g>
                    <path d="M11.455.04c.175 0 .47-.107.43.027-.04.135-.067.632.148.887s.335.349.537.322c.202-.027.175.08.322.067.148-.013.054.161.189.161.134 0 .375.027.375.174 0 .149.404.028.498.108.094.08.201.148.174.309-.027.161.202.282.068.349-.135.067.04.201.053.376.014.174.202.242.497.228.296-.013.377.014.377.229 0 .214.2.241.268.443.067.2-.08.43-.053.59.023.138-.072.285-.167.325l.018-.003.038-.02c.104.132.113.191.02.242-.123.069.15.26.082.559-.068.3-.082.355.232.368.313.014.286.11.395.04.11-.067.273.233.314.383.04.15.163.504.218.504.055 0 .218-.164.382-.081.13.064.011.444-.03.695.037.003.067.008.084.016.081.042.122.592.081.694-.04.102-.377.194-.55.306-.174.112-.593.51-.787.826-.194.317-.541.541-.541.735 0 .194-.143.408-.153.775-.01.368-.112.307-.123.592-.01.286.092.235.133.276.023.022-.005.113-.034.19-.04-.035-.08-.051-.163.027-.171.161.131.292.323.312.191.02.362.141.252.272-.111.13-.122.363.08.393.202.03.262.18.191.302-.07.12-.382.453-.413.594-.03.14-.373.322-.866.423-.494.1-1.088.15-1.169.07-.08-.08-.212.02-.161.182.05.16.201.2.02.322-.182.12-.04.322-.04.433 0 .111-.222.282-.524.262-.302-.02-.645-.302-.726-.192-.08.111-.02.332.02.423.04.09-.02.343.07.343.091 0 .162.14.253.12.09-.02.14-.211.312-.08.171.13-.05.352-.181.352s-.07-.17-.252-.15c-.182.02-.131.15-.02.181.11.03.06.13-.121.15-.182.02-.182.293-.182.464 0 .151-.02.252-.12.312-.101.06.01.232-.111.242-.121.01-.544.05-.746.423-.201.372.202.654.312.695.111.04.454.02.454.12 0 .101-.131.363-.08.443.05.081-.315.257-.535.443-.201.172-.312.262-.322.504-.01.242-.191.343-.282.323-.091-.02-.1.08-.242.18-.141.102-.09.323-.09.424 0 .1.06.252.05.343-.01.09.312.352.241.422-.058.058-.314-.109-.43-.057-.06-.054-.144-.115-.245-.141-.205-.055-.696 0-.805.013-.019.002-.036-.002-.051-.01.035.051.074.109.134.102.11-.014.6-.068.804-.014.101.027.185.087.245.141-.025.011-.044.032-.053.068-.044.177.176.175.319.172l.004-.087c.123.028.252.2.16.246-.031.015-.063.041-.088.07l-.005.122c.012.004.03.003.052 0 .181-.031.07.09.222.21.15.122.644.585.896.595.252.01.464.04.303.14-.162.102-.464.041-.565.152-.063.07-.146.02-.206 0-.136-.088-.553-.044-.712-.039.008.057.016.09.028.091.073.013.608-.062.766.04-.036-.011-.065-.012-.076.03-.03.11-.151.09-.302.04-.151-.05-.373-.12-.262 0 .11.12.212.343.06.302-.15-.04-.332-.443-.473-.342-.14.1.151.262-.161.16-.312-.1-.182-.452-.323-.422-.14.03-.03.453-.16.353-.038-.03-.058-.071-.072-.117l-.034-.143c-.02-.068-.049-.126-.126-.143-.182-.04-.333.12-.333-.071s.353-.06.232-.181c-.12-.121.02-.282.12-.171.102.11.323.311.223.08-.101-.231-.01-.322.09-.282.101.04.02.454.192.373.17-.08-.07-.212-.02-.322.05-.111.362-.091.251-.202-.11-.11-.282.121-.413-.02-.13-.14-.1-.192.07-.262.172-.07.293-.302.061-.222-.232.081-.463.192-.403.433.06.242-.161.413-.352.322-.192-.09-.263.081-.182.132.08.05.202.04.08.15-.12.112-.12-.01-.292-.12-.17-.11-.251.06-.392-.091-.141-.15-.212-.322-.05-.302.035.004.08.017.126.033l.144.05c.118.04.218.061.213-.023-.01-.15.121-.322.232-.221.11.1.423-.03.342-.191-.08-.162-.231.12-.513.1-.283-.02-.232.222-.414.172-.181-.051-.02-.051-.01-.182.01-.13.222-.241.252-.16.03.08.252.02.282-.051.03-.07.323.03.282-.09-.04-.122-.584-.152-.695-.041-.11.11-.231.242-.332.11-.101-.13-.02-.302.13-.271.152.03.444-.04.404-.161-.04-.121-.283-.242-.292-.101-.01.14-.111.181-.152.05-.04-.13-.211-.01-.272-.03-.06-.02.081-.171.212-.212.13-.04.05-.211-.09-.15-.142.06-.122.03-.233-.01-.11-.04-.17.15-.241.07-.07-.08.14-.191.01-.272-.132-.08.16 0 .15-.12-.01-.122.122-.061.122-.172 0-.11.07-.241.07-.342 0-.1.182-.212.06-.323-.12-.11-.22.111-.19.212.03.1-.012.2-.142.181-.14-.02-.01-.191-.11-.14-.102.05-.223-.102-.102-.192.121-.09.202-.171.242-.272.04-.1.242-.01.232-.192-.01-.18-.15-.1-.191-.02-.04.081-.151.131-.222.142-.07.01-.06-.122-.171-.202-.111-.08.211-.292.302-.252.09.04.201.1.272-.02.07-.121.232 0 .302.07.071.071.111-.14-.01-.18-.12-.041-.403.11-.423-.041-.02-.15.06-.292.141-.282.08.01.1-.202-.04-.232-.141-.03-.212.101-.262-.03-.05-.13-.212-.1-.212 0s-.12.08-.11-.02c.01-.1.181-.242.282-.272.1-.03-.111-.12-.02-.221.09-.101.272-.05.261-.192-.01-.14.242.02.242-.11 0-.132-.302-.303-.15-.363.15-.06.332.212.241.333-.09.12-.272.241-.202.302.07.06.232.231.293.12.06-.11-.142-.221-.04-.302.1-.08.291-.01.23-.13-.06-.121-.12-.252-.02-.272.102-.02-.06-.151.011-.192.07-.04-.03-.05-.02-.221.01-.171.14-.161.08-.292-.06-.131.04-.252.111-.363.07-.11-.1-.292.04-.383.142-.09.071-.171-.03-.201-.028-.009-.038-.03-.041-.054v-.076c-.002-.035-.015-.058-.08-.041-.15.04-.02.171-.17.171-.152 0 .04.796-.202.816-.242.02-.252.03-.212-.303.04-.332.09-.493.192-.493.1 0 .12-.07.04-.272-.08-.2.06-.352.06-.534 0-.18.081-.191.142-.382.06-.192.1-.262-.02-.463-.122-.202.03-.373-.061-.574-.09-.202-.06-.333.06-.333.121 0 .121-.131.212-.362.09-.232.322-.665.353-.967.03-.302.191-.352.16-.564-.03-.211.102-.201.102-.312 0-.111.063-.67 0-.997-.05-.262.16-.332.171-.493.01-.161-.282-.454-.171-.544.11-.09.221-.202.201-.393-.02-.191.111-.302.121-.473.01-.171.202-.715.202-1.037 0-.322-.03-.524.05-.605.08-.08-.121-.09-.06-.262.06-.17.12-.402.18-.684.061-.282.031-1.017-.03-1.168-.043-.11-.003-.298-.004-.409.042-.034.077-.06.099-.071.134-.067.148-.295.188-.363.04-.067.04.08.201.201.162.122-.026.323.108.484.134.16.282.175.188.255-.094.08.013.241-.094.322-.107.081.04.323.161.376.121.054.04.295.161.416s.068.403.108.497c.01.024.04.027.084.015-.027-.106.013-.363-.1-.476-.121-.121-.04-.363-.162-.416-.12-.054-.268-.295-.16-.376.106-.08 0-.242.093-.322.094-.08-.054-.095-.188-.256-.134-.16.054-.362-.108-.483-.138-.103-.157-.225-.186-.216-.012-.082-.01-.158.039-.187.094-.053.242-.268.242-.362 0-.094-.175-.094-.175-.215 0-.12.188-.322.107-.39-.08-.066.121-.268.108-.375-.013-.108-.094-.591-.04-.645.054-.053.175-.093.12-.241-.042-.117-.233-.441-.312-.639.057.008.11.02.152.034.147.054.295 0 .39-.093.093-.094.2-.094.388-.201.189-.108.363-.242.538-.242zm4.106 9.77c.092-.04.235-.04.388.143.153.184.143.327.204.317.061-.01.133-.245.255-.071.123.173.439.305.51.387.072.082.307.143.307.357 0 .154-.073.444.047.689-.124.16-.204.328-.362.424-.232.142-.474.122-.685.091-.212-.03-.131.1-.353 0-.221-.1-.403-.171-.584-.151-.094.01-.137-.05-.18-.087.03-.077.057-.168.034-.19-.04-.041-.143.01-.132-.276.01-.286.112-.224.122-.592.01-.367.153-.581.153-.775 0-.08.06-.163.14-.257.056.008.104.006.136-.008zm-.27-2.563l.001.034c-.034.117-.357.357-.357.575 0 .245-.15.218-.15.3 0 .052.127.049.247.057.043-.034.106-.079.106-.237 0-.246.409-.518.354-.613-.017-.03-.096-.071-.201-.116z" transform="translate(-436.000000, -1531.000000) translate(424.000000, 1263.000000) translate(12.000000, 268.000000)"/>
                </g>
            </g>
        </g>
    </g>
</svg>
