<svg xmlns="http://www.w3.org/2000/svg" width="24" height="24" viewBox="0 0 24 24">
    <g fill="none" fill-rule="evenodd">
        <g fill="#98A0A7">
            <g>
                <g>
                    <path d="M19.098 9.864l.063.021c.176.102.083.222-.102.26-.057.01-.087.041-.101.08-.017.005-.032.011-.047.018-.014.084.028.192.062.253.055.102-.269.37-.185.546.083.175.36.314.444.148.083-.167-.167-.444-.139-.61.028-.167.444-.269.565-.324.12-.056-.056-.268.12-.268s.12.25.351.23c.232-.018.333.14.324.325-.01.184.315.184.546.092.231-.092.583.342.786.231.204-.11.555-.25.805-.287.25-.036.537.093.352.102-.186.01-.232.194-.056.231.176.037.63.065.62.231-.01.167-.268.352-.111.342.12-.006.406-.013.605.062-.053.102-.11.175-.153.2-.105.06-.255.224-.15.285.105.06.135.21-.06.224-.195.015-.21.09-.195.195.015.105-.135.15-.045.225.06.05.191.224.274.336-.032.06-.054.13-.113.15-.112.037-.388.225-.513.2-.125-.025-.288.025-.288.162 0 .138-.138.1-.163-.012-.025-.112-.288-.05-.363-.125-.075-.075-.426-.038-.276.05.15.087.163.175.163.313s.113.1.113.263c0 .162.125.05.213.05.087 0 .087.15-.05.175-.138.025-.2.1-.238.226-.038.125-.163.037-.276.137-.113.1-.213.2-.288.15-.075-.05-.138-.012-.225.038-.088.05-.125 0-.25-.1-.095-.075-.153-.256-.32-.421l.024.025c-.103.046-.29.112-.392.112-.146 0-.605-.033-.63.046-.025.079.033.212.108.229.076.017.234.063.084.171-.15.108-.284-.037-.284.225 0 .263.337.433.267.676-.036.125-.085.445-.085.569 0 .093-.029.357-.09.49.027.017.053.039.07.064-.033.002-.067-.007-.1-.016l-.002.002-.038.026c-.007.002-.014.002-.02.002-.013-.017-.03-.033-.047-.047-.04.002-.083.017-.13.056-.148.123-.333.05-.505.185-.173.136-.358.086-.37.247-.013.16-.173.246-.136.394.037.148-.074.111-.185.222s.012.185-.062.271c-.074.087.025.222.111.358.086.135.185.234.173.357-.013.123.086.173.21.16.123-.012.024.235.222.235.197 0 .394.049.444-.062.049-.111.185-.197.185-.037s-.037.592.098.543c.098-.036.266-.04.403-.02.073.182.249.48.288.587.05.135-.062.172-.111.222-.05.048.024.492.037.591.012.099-.173.284-.099.345.074.062-.099.247-.099.358 0 .111.16.111.16.197 0 .087-.135.284-.221.333-.046.026-.047.096-.036.171-.004.001-.009.005-.014.014-.037.062-.05.271-.172.333-.02.01-.052.034-.09.066-.001-.039-.007-.068-.024-.078-.065-.037-.398-.204-.5-.38-.102-.175-.814-.545-1.203-.739-.388-.194-.508-.36-.656-.462-.148-.102-.204-.305-.158-.38.047-.073-.046-.277-.25-.536-.203-.259-.499-.869-.647-1.23-.148-.36-.157-.49-.296-.637-.139-.148-.268-.463-.416-.574-.148-.11-.472-.259-.454-.36.019-.102.158 0 .13-.111-.028-.111-.232-.416-.157-.573.068-.146.207-.336.345-.364.025.026.046.052.062.078.019-.052-.02-.125-.089-.195.012-.003.023-.006.034-.006.148 0 .24-.166.185-.26-.055-.092-.074.075-.203-.045-.13-.12-.26-.148-.24-.213.018-.065.1-.166.027-.277-.074-.11-.037-.222.092-.287.13-.064.056-.092.112-.222.055-.13.185-.13.185-.25v-.11c.003-.096.026-.188.138-.195.074-.004.144-.018.196-.041l-.044-.033c.007-.08.04-.174.084-.174.055 0 .045-.26.212-.269.167-.009.25-.092.342-.277.093-.185.176-.268.093-.36-.083-.093-.148-.602-.074-.648.074-.046.037-.157 0-.23-.037-.075.046-.186-.083-.324-.033-.036-.082-.08-.134-.13.107-.11.23-.236.281-.273.028-.021.046-.07.058-.13.032.015.062.012.09-.022.093-.11.214-.351.417-.48.204-.13.157-.26.148-.398-.01-.14.278-.388.389-.36.11.027.184.148.194.027.01-.111.25-.056.38-.12.129-.065.166-.185.36-.213.194-.028.296-.324.472-.222zm-1.482 5.479l-.011.017-.03.028c-.122.098 0 .116-.23.424-.232.309-.628.385-.82.444-.193.057-.27.413-.377.665-.106.25-.193.163-.299.019-.106-.145-.193.029-.318-.087l-.03-.028c-.029.04-.03.065.057.145.125.115.212-.058.318.086.106.145.193.232.299-.019l.039-.098.076-.207c.065-.17.14-.323.261-.36.193-.058.588-.134.82-.443.231-.309.109-.326.231-.424.06-.048.06-.093.014-.162zm-4.456-4.861c.09-.007.183-.01.23.013.092.046.321 0 .413.069.044.034.12.034.206.023.091.131.262.351.413.514l-.059-.066c.01-.038.028-.078.055-.114.082.09.16.161.214.192.185.102.453.213.666.018.213-.194.426-.296.592-.222.167.074.435.056.583.278.103.154.188.292.26.326-.012.06-.03.11-.057.13-.051.038-.174.163-.281.273-.153-.145-.335-.33-.246-.434.12-.138.01-.23-.12-.286-.13-.056-.426.01-.463.148-.036.138-.24.102-.222.203.019.102.167.139.12.231-.045.093-.24.232-.323.084-.083-.149-.167-.037-.305-.204-.116-.139-.354-.22-.538-.242l.059.01c-.01.046-.035.104-.055.17-.036-.005-.07-.008-.1-.008-.167 0-.25-.064-.241-.212.01-.148-.204-.259-.296-.259-.093 0-.083-.157-.185-.157-.026 0-.04.008-.052.019l-.03.035c-.022.022-.057.034-.159-.008-.203-.083-.194-.305-.11-.36.042-.03.053-.096.03-.164zM.96 1s.296.208.464.247c.064.015.239.074.429.14l.23.083c.224.08.418.152.418.152l1.186-.01.138-.178h.653s.415.405.474.426c.06.019.267.207.267.325 0 .119.05.218.148.267.099.05.435.267.484.247.05-.02.149-.395.326-.385.178.01.663.148.742.424.079.277.316.504.395.563.079.06.04.227.099.317.06.089.05.256.118.256.07 0 .425.218.584.208.047-.003.11.025.173.065-.003.05-.014.108-.037.174-.176.49-.148.915-.139 1.164.01.25.028.639.157.814.13.176.426.352.444.546.019.194.084.434.24.425.158-.009.362.24.473.222.11-.018.906-.259.98-.213.074.047.333.186.315.047-.019-.139.286-.148.277-.38-.009-.23.139-.11.12-.379-.018-.267.158-.425.537-.48.38-.055.509-.12.657-.028.148.092.323-.102.36.092.038.195-.101.204-.23.343-.13.139-.047.222-.075.471-.022.204-.065.455-.185.566l-.046-.041-.042.017c-.195.047.055.564-.111.694-.069.053-.116.138-.131.21l.009-.032.169-.023c-.016.079.005.14.081.131.028-.018.056-.026.083-.032.004 0 .004.001.003.001.22-.045.446.078.647 0 .24-.092.685-.184.888.019.19.19.467.125.464.328l-.007-.038.033-.003v.02l-.001.022c-.047.259.009.323-.093.435-.101.11 0 .536-.055.711-.056.176-.167.417-.102.536.01.02.03.051.058.09-.087.011-.162.01-.207-.023-.092-.068-.321-.023-.413-.068-.047-.025-.14-.021-.23-.014-.02-.064-.067-.129-.142-.169-.157-.083-.36-.407-.509-.49-.06-.034-.07-.077-.068-.122l-.022.005c.007-.055.017-.112-.038-.157-.06-.05-.088-.03-.124 0l.007-.044-.034.005c-.144 0-.67-.165-.81-.276l.046.029-.014.013-.013-.01c-.04-.037-.099-.048-.166-.05h-.214c-.073-.003-.144-.014-.203-.051-.09-.057-.273-.227-.458-.391.084-.12.166-.234.229-.317-.037-.002-.06-.002-.07 0-.02.004-.177.215-.34.45-.18-.16-.359-.313-.45-.35-.185-.074-.435-.24-.758-.11-.324.13-.611.193-.842.046-.231-.148-.583-.305-.944-.407-.36-.102-.573-.324-.823-.416-.25-.093-.5-.065-.666-.204-.167-.139-.398-.388-.601-.406-.204-.019-.324-.435-.334-.518-.009-.083.204-.037.13-.148-.074-.111.065-.176.019-.306-.047-.129-.084-.277-.204-.452-.12-.176-.694-.805-.897-.999-.204-.194-.083-.213-.343-.314-.259-.102-.314-.203-.259-.324.056-.12.037-.23-.064-.25-.102-.018-.13-.194-.287-.221-.157-.028-.204-.194-.204-.278 0-.083-.23-.092-.351-.24-.12-.148-.25-.287-.296-.24-.046.046-.194.175-.194-.111 0-.287.166-.047-.075-.472-.14-.248-.116-.37-.087-.438l.022-.047c.009-.018.01-.03-.009-.042-.073-.046-.23.046-.277-.056-.046-.102-.157-.129-.222-.092-.065.037-.102-.019-.148-.074-.046-.055-.194-.074-.148.046.046.12.139.472.139.62 0 .148.092.258.23.323.14.065.25.056.325.139.074.083-.13.166-.046.222.083.055.213.23.333.453.12.222.407.425.462.628.056.204.157.481.268.592.111.11-.009.351.102.37.111.018.352-.01.352.148 0 .157.138.194.092.333-.046.139-.176.23-.203.13-.028-.103-.148-.343-.444-.537-.296-.194-.574-.351-.481-.426.092-.073.11-.314-.12-.517-.232-.204-.306-.296-.454-.277-.148.018-.536-.306-.518-.389.018-.083.305.055.333-.028.028-.083.028-.407-.204-.554-.23-.148-.5-.269-.518-.417-.018-.148-.157-.572-.351-.813C.118 1.345.049 1.231 0 1.126zm10 6.669c-.071 0-.089.285-.133.312-.038.023.235.21.295.338.093-.005.173-.023.19-.068.045-.116-.348-.375-.303-.403.023-.013.04-.1.06-.178l-.109-.001zm10.1-.17c-.167-.258.758-.184.684 0-.042.105-.518.26-.685 0zm-4.917-.096c-.092-.161.925-.02.85.148-.073.166-.776-.019-.85-.148zm2.372-.858c.134-.094.426.057.66.117l-.009.073c.053.01.1.01.14-.002.221-.074 1.11.203 1.11.462s-.537.055-.87.167c-.333.11-.37.258-.518.184l-.032-.016.008-.1c-.126-.059-.282-.103-.489-.034-.278.092-.574-.037-.537-.13.072-.179.814.019.814-.147 0-.167-.462-.444-.277-.574zm-4.824-.703c-.078-.104.648-.702 1.48-.517.833.185 1.74.814 2.017.814.278 0 .851.37.777.462-.074.092-1.147.111-1.35.037-.204-.074.203-.24-.204-.333-.407-.092-.462-.444-.888-.462-.426-.019-.685-.074-.703-.167-.019-.092-.204-.314-.407-.166-.204.147-.61.48-.722.332z" transform="translate(-436.000000, -1564.000000) translate(424.000000, 1263.000000) translate(12.000000, 301.000000)"/>
                </g>
            </g>
        </g>
    </g>
</svg>
