<svg xmlns="http://www.w3.org/2000/svg" width="24" height="24" viewBox="0 0 24 24">
    <g fill="none" fill-rule="evenodd">
        <g fill="#98A0A7">
            <g>
                <g>
                    <g>
                        <path d="M21.271 14.1c.18-.143.275.236.417.17.142-.066.208-.2.341-.104.133.095-.028.19.057.35.086.161-.331.351-.331.56 0 .207-.304.236-.285.397.02.161.2.227-.142.227-.34 0-.398.152-.474.294-.076.142-.094.369-.218.445-.123.076.029.208-.284.492-.313.284-.73.284-.786.18-.057-.104-.18 0-.303-.123-.124-.123-.275-.01-.39-.17-.143-.205.105-.313.115-.465.01-.151.417-.312.54-.511.123-.2.938-.408 1.175-.777.237-.37.151-.426.35-.596.2-.17.038-.228.218-.37zm-7.662-.105c.09-.025.474.237.73.208.256-.028.672-.312.72-.151.047.161.17.653.019.653-.152 0-.02.407-.123.464-.105.057-.228-.142-.247-.047-.019.094.029.227-.095.218-.123-.01-.057.198-.236.17-.18-.028-.702-.492-.569-.663.133-.17-.303-.824-.2-.852zm8.07-2.907c.19 0 .53.17.53.389 0 .217.161.198.161.388 0 .189.086.293.161.293.076 0 .114.161.171.086.057-.077-.142-.228.01-.237.151-.01.189.199.189.34 0 .143.095.256.256.256.16 0 .331.18.417.038.085-.142.492-.217.417-.019-.076.2-.01.38-.142.38-.133 0-.076.255-.18.255-.105 0-.209-.01-.285.095-.076.104.019.312-.132.445-.152.132-.256.606-.474.663-.218.057-.36-.01-.389-.057-.055-.093.332-.512.123-.682-.208-.17-.71-.341-.568-.511.142-.17.35-.124.35-.389s.18-.596.067-.634c-.114-.038-.266-.256-.256-.342.01-.085-.199-.189-.294-.302-.095-.114-.322-.455-.132-.455zM12.697 0l.03.008c.067.057.076.417.21.521.132.104.217.464.198.682-.018.217-.028.445.133.426.16-.019.322-.114.332-.01.009.105.303.152.284.341-.019.19.066.35.057.521-.01.17.255.237.255.445 0 .208.029.455.105.521s-.076.256.104.293c.18.038.995.455.985.578-.01.123 0 .209.142.313.142.104.19.217.161.312-.028.095 0 .332.104.294.105-.038.18-.114.247-.019.066.094.199-.086.17.142-.027.227 0 .473.152.445.152-.029.048.237.209.198.16-.037.303.228.331.322.029.095.161.455.285.332.123-.123.151-.151.104.085-.047.237-.047.758.019.71.066-.047.18.256.104.313-.076.057.123.237-.02.389-.142.151-.066.36-.047.426.02.066-.104.322-.104.54 0 .217-.218.417-.228.597-.009.18-.17.265-.255.293-.086.029-.417.606-.455.919-.038.312-.284.36-.322.653-.038.294-.076.862-.142.862-.067 0-.73.028-.891.16-.161.133-.256.237-.407.295-.152.056-.19.142-.19.236 0 .095-.075.01-.142-.104-.066-.113-.237-.113-.284-.255-.048-.142-.105-.039-.114.085-.01.123-.209-.057-.076-.133.133-.076-.113-.293-.18-.066-.066.227-.407.426-.54.312-.133-.113-.625-.303-.862-.303s-.114-.028-.436-.189-.265-.35-.227-.55c.037-.198-.192-.57-.36-.587-.095-.01-.275.114-.313.02-.038-.095.218-.266.057-.475-.161-.208-.237-.104-.237.124 0 .227-.427.16-.398.038.028-.123.18.104.265-.331.085-.436.313-.493.18-.606-.132-.114-.332.151-.36.378-.029.228-.237.057-.426.322-.19.265-.256.313-.35.123-.096-.19.075-.227-.105-.473-.18-.246-.465-.237-.379-.36.085-.123.104-.237-.029-.266-.132-.028-.113-.132-.246-.122-.133.01-.247-.095-.502-.066-.256.028-.294-.313-.521-.256-.228.057-.664.019-.9.114-.237.094-.579.293-.948.274-.37-.019-.493-.01-.635.123-.142.133-.504.144-.569.322-.075.209-.293.36-.795.332-.502-.029-.995-.067-1.1.066-.104.133-.084.199-.302.209-.218.008-.266.255-.427.255-.161 0-.635.047-.834-.085-.199-.133-.132-.256-.312-.275-.18-.02-.275-.284-.114-.284.161 0 .285-.095.246-.35-.038-.257.152-.483.095-.569C1.121 9.45.78 8.901.798 8.56c.019-.341-.35-.569-.36-.805-.01-.237-.474-.88-.436-.966.042-.095.246.312.303.227.057-.085-.17-.255-.123-.303.047-.047.19.35.256.218.066-.133-.048-.303-.246-.568-.2-.266-.067-.473.075-.682.142-.208-.085-.284-.019-.483.067-.199.218-.378.218-.312 0 .065-.019.322.048.265.066-.057.066-.303.227-.313.161-.01.389-.142.53-.293.143-.152.484-.247.512-.124.029.124.275-.075.408-.18.132-.104.274-.018.407-.132.132-.113.56.028.758-.209.199-.236.54-.558.616-.606.076-.047-.152-.322.019-.502.17-.18.331-.312.331-.17s.105.388.171.322c.066-.066.17-.057.133-.217-.038-.162-.19-.285-.067-.323.123-.038.332.17.313.028-.019-.142-.038-.416.085-.416.124 0 .124-.133.2-.142.075-.01-.067-.17.075-.19.142-.018.35.124.332-.009-.02-.133.01-.199.133-.199.123 0 .123-.132.246-.142.123-.01.322.161.36.265.038.104.266.02.237.2-.029.18.151.255.142.094-.01-.16.133-.16.275-.019.142.142.379.133.218-.047s-.152-.275-.02-.36c.134-.086.048-.18.172-.313.123-.133.151-.398.303-.388.151.01-.057-.18.123-.123.18.056.796-.048.654-.2-.143-.15-.285-.236-.161-.283.123-.048.19.217.397.246.209.028.74.133.834.256.095.122.275-.123.322-.133.048-.01.105.246.162.227.057-.019.01-.199.16-.17.153.028.238.151.096.208-.142.057.047.18-.142.284-.19.105-.351.076-.275.2.076.123.104.255-.038.36-.142.104-.19.104-.038.208s.218.133.284.322c.067.189.227-.01.436.151.208.16.284.35.417.331.132-.019.388.057.379.18-.01.124.294.303.52.218.229-.085.248-.34.361-.502.114-.16.105-.417.133-.653.028-.237-.076-.653.038-.758.114-.104-.029-.397.057-.473.085-.076.114-.218.104-.341-.01-.123.208-.37.275-.313z" transform="translate(-436.000000, -1465.000000) translate(424.000000, 1263.000000) translate(12.000000, 202.000000) translate(0.000000, 3.000000)"/>
                    </g>
                </g>
            </g>
        </g>
    </g>
</svg>
