<svg id="Layer_1" data-name="Layer 1" xmlns="http://www.w3.org/2000/svg" viewBox="0 0 404.98 115"><defs><style>.cls-1{fill:#fff;}</style></defs><path class="cls-1" d="M122.19,50.86h13.1L119.09.78H97.46l3.38,5.85L86.53,50.86H99.4l1.67-5.65,18-4.83ZM104.53,33.41l6.27-21.3,5.33,18.14Z" transform="translate(-0.77)"/><path class="cls-1" d="M178.33.77,165,19.79l-13.2-19H140.19V50.85H152.6V22.6L165,39.69,177.4,22.6V50.85h12.41V.77Z" transform="translate(-0.77)"/><path class="cls-1" d="M287.07,21.24l-5.72,9.92H295c-.78,5.09-4.5,8.83-12,8.83-7.75,0-12.4-4.8-12.4-14.26,0-8.68,4.18-14.1,12.4-14.1,5,0,8.38,1.85,10.56,5.4l12.07-3.24C302.74,4.18,293.28,0,282.27,0c-12.4,0-24.8,8.37-24.8,25.89s11.94,25.73,25.58,25.73c17.05,0,26.2-13.49,24.18-30.38Z" transform="translate(-0.77)"/><path class="cls-1" d="M251,.77h-13.1V50.85H251Z" transform="translate(-0.77)"/><path class="cls-1" d="M230.81,12.23V.77H199.34V50.85h13.1V34.1h10.13l6.62-11.46H212.44V12.23Z" transform="translate(-0.77)"/><path class="cls-1" d="M63.69,39.38V30.77h16V19.89h-16V12.22H83.46V.76H.77L7.39,12.22h14.5V60.64L35,64.15V12.22H56.2l-5.6,9.71V50.84H79.44l4.18-11.46Z" transform="translate(-0.77)"/><path class="cls-1" d="M405.75.76l-56.86,0h-6.28V17.32l-15.93,4.26V.78h-13.1V50.86h13.1V33.55l15.93-4.27V50.86h13.1V21.57l-5.39-9.35h21.21V64.14l13.1-3.51V12.22h14.5Z" transform="translate(-0.77)"/><path class="cls-1" d="M342.64,84.15c-6.35-1.4-8.21-1.71-10.23-2.17-3.25-.78-5-1.86-5-4.18,0-2.49,2.95-4,6.82-4,5,0,7.49,2.09,8.65,5L355,75.47C354,69,346.83,63.38,334.27,63.38c-11.32,0-19.69,5.12-19.69,15.5,0,7.44,4.5,12.25,13.49,14.11l8.22,1.7c4.34.93,6.35,2.17,6.35,4.5,0,2.79-1.7,5.27-7.9,5.27-5.58,0-9.15-3.1-10.23-7.44l-12.35,3.31c2.22,8.72,8.89,14.67,22.73,14.67,10.85,0,20.93-5.58,20.93-17.36C355.82,89.42,350.7,85.85,342.64,84.15Z" transform="translate(-0.77)"/><path class="cls-1" d="M295.81,95.51c-1.62,4.88-4.74,7.86-11.42,7.86-7.75,0-12.56-5.42-12.56-14.26S276.48,75,284.39,75c4.85,0,8.72,2.38,10.43,6.72l12.36-3.3c-3.26-11-12.41-15-23.1-15-13.34,0-25.58,8.37-25.58,25.89S270.12,115,283.77,115c11.31,0,20.92-4.5,24-16.28Z" transform="translate(-0.77)"/><path class="cls-1" d="M176,95.51c-1.62,4.88-4.74,7.86-11.42,7.86-7.75,0-12.55-5.42-12.55-14.26S156.7,75,164.6,75c4.85,0,8.73,2.38,10.43,6.72l12.36-3.3c-3.26-11-12.4-15-23.1-15-13.33,0-25.58,8.37-25.58,25.89S150.34,115,164,115c11.31,0,20.92-4.5,24-16.28Z" transform="translate(-0.77)"/><path class="cls-1" d="M251,64.15h-13.1v50.08H251Z" transform="translate(-0.77)"/><path class="cls-1" d="M233.06,64.15H187l6.61,11.46h9.88v38.62h13.1V75.61h9.88Z" transform="translate(-0.77)"/><path class="cls-1" d="M94,64.15H47.93l6.62,11.46h9.88v38.62h13.1V75.61H87.4Z" transform="translate(-0.77)"/><path class="cls-1" d="M125,114.23H138L121.85,64.15H100.21L103.59,70l-14.3,44.23h12.87l1.66-5.66,18.05-4.82ZM107.29,96.77l6.26-21.29,5.34,18.14Z" transform="translate(-0.77)"/><path class="cls-1" d="M355.82,64.72h1.11v3h.7v-3h1.1v-.57h-2.91Z" transform="translate(-0.77)"/><path class="cls-1" d="M361.48,66.71l-1-2.56h-1v3.62h.66V64.94h0l1.08,2.83h.49l1.08-2.83h0v2.83h.66V64.15h-1Z" transform="translate(-0.77)"/></svg>