<svg xmlns="http://www.w3.org/2000/svg" width="24" height="24" viewBox="0 0 24 24">
    <g fill="none" fill-rule="evenodd">
        <g fill="#98A0A7">
            <g>
                <g>
                    <path d="M12.361 23.818c-.117-.02.154-.245.288-.119.133.126.637.021.75.084.112.063.287-.05.294.02.007.07-.364.204-.638.197-.273-.007-.526-.154-.694-.182zm-2.224-4.11l-.005.043c.005.024-.004.078-.02.148-.082-.066-.165-.13-.243-.18l.034.023c-.025-.009-.048-.014-.07-.016-.21-.014-.392-.112-.406-.217-.014-.105-.267-.077-.379-.203-.112-.126-.413-.497-.42-.665-.007-.168-.238-.155-.364-.155-.077 0-.071-.106-.086-.201.097-.014.274-.042.334-.065.085-.031.273.074.294.011.021-.063.085-.21.169-.21s.03-.221.115-.232c.073-.008.24-.151.284-.19l-.01.008c-.058-.038-.114-.073-.154-.097l.01-.01s-.08-.161-.113-.177c.013-.058.035-.106.076-.112.077-.01.022-.142.077-.208.055-.065-.044-.197.055-.186.099.011.208.022.208-.12 0-.048.026-.09.064-.126.02.028.041.055.063.075.141.125.642.11.642 0s.407-.157.501-.157c.094 0 .392-.297.439-.281.047.015.36.062.438.14.04.039.167.078.298.107.035.03.075.056.112.068.095.031.115.094.032.158-.084.063-.253.157-.316.2-.063.041-.284.567-.431.714-.126.126-.243.16-.282.199l-.133-.022c-.078-.015-.203-.062-.203-.062l-.233.075-.199.062c-.097.03-.184.056-.226.066-.075.02-.202.02-.311-.008.1.114.354.128.475.098.033-.009.093-.026.164-.048.014.123.046.258.124.287.15.056.094.207.15.339.01.021.017.058.022.101-.088-.06-.17-.106-.24-.14l.076.05c.027.216.004.632-.06.632-.025 0-.077.05-.133.12.1.104.246.276.348.401-.023.005-.047.022-.072.048.1.035.298.172.369.222-.05.16-.084.38-.052.492.032.11.132.187.275.294-.005.003-.01.007-.01.013-.011.053-.095.2-.169.273-.047.048-.038.1-.053.136.063-.031.022-.104.087-.169.073-.073.157-.22.168-.273.01-.053.2-.01.326-.042.126-.031.157-.168.22-.137.064.032.4-.14.442-.203l-.009.008-.028-.057c-.046-.068-.156-.178-.212-.233l-.03-.029c-.03-.032.011-.168 0-.231-.01-.063.064-.19.158-.19.095 0-.042-.21-.147-.304-.105-.095-.095-.262 0-.326l.025-.022.014-.023c.127.021.22.194.27.182.056-.015.434.07.504.056.07-.014.393 0 .505.014.06.007.123-.005.184-.033l-.05-.002c-.113-.014-.435-.028-.505-.014s-.449-.07-.505-.056c-.05.012-.143-.16-.27-.182.022-.056-.028-.125-.028-.207 0-.105-.452-.136-.526-.157-.074-.021.053-.295-.063-.295-.116 0-.158-.083-.158-.168 0-.084-.178-.22-.168-.273.01-.052.147-.074.295-.22.147-.148.367-.673.43-.715.064-.042.232-.136.316-.2.05-.036.061-.072.046-.103.073-.01.14-.016.182-.016.07 0 .379.085.476.085.046 0 .1.009.15.023-.058-.034-.17-.063-.253-.063-.098 0-.406-.085-.476-.085-.042 0-.109.006-.182.016-.012-.022-.038-.04-.078-.054-.094-.032-.21-.148-.21-.232 0-.084.158-.304.21-.346.01-.008.015-.021.018-.039-.061-.014-.107-.027-.12-.04-.048-.048-.251-.11-.408-.095-.156.016-.235-.078-.36-.03-.125.046-.329 0-.406-.048-.08-.047-.173.094-.283.032-.11-.063-.14-.235-.219-.282-.078-.047-.297-.016-.313-.079-.015-.062-.031-.172-.125-.172s-.22-.062-.266.047v.001c.056-.013.13.013.19.013.094 0 .11.11.125.172.016.063.235.032.314.079.06.036.093.148.156.225-.093.052-.206.13-.274.226-.132.189-.32.208-.452.226-.054.008-.098.076-.132.154-.021-.056-.034-.096-.034-.096s-.235.094-.36-.047c-.126-.14-.439-.14-.439-.14s-.031.14-.078.218c-.04.066-.267.065-.413.026.009-.011.013-.023.006-.036-.042-.073-.388-.294-.494-.367-.105-.074-.105-.306-.157-.4-.053-.094-.169-.22-.032-.252.136-.032.378-.084.494-.19.115-.104.326-.115.39-.178.062-.063.21.053.251-.01.01-.014.018-.032.025-.05.089.064.188.127.274.158.22.079.298.141.313.22.016.078.204.219.251.109.004-.01.009-.017.014-.024-.072.003-.177-.089-.19-.147-.014-.078-.093-.14-.312-.219-.087-.03-.186-.094-.274-.159.026-.066.035-.155-.014-.212-.064-.074-.106-.2-.116-.378-.01-.179-.063-.168-.063-.252 0-.085-.032-.19-.106-.232-.073-.042-.104-.073-.031-.189.074-.116.042-.41.01-.493-.006-.017-.005-.037-.001-.057.049.024.125-.021.135-.108.014-.119.519-.035.736-.252.217-.217 1.03-.385 1.037-.294.007.091.02.294.224.294.079 0 .142-.023.189-.057l-.05-.017c.022-.04.033-.08.028-.112-.015-.091.322-.161.322-.021s.323.133.224 0c-.098-.133.218-.147.154-.26l-.011-.017c-.01-.006-.016-.012-.019-.02-.014-.015-.029-.025-.044-.034l.05-.005c.006-.012.016-.027.032-.045.108-.12.143-.318.047-.514.14-.011.29-.037.376-.098.15-.107.557 0 .685 0 .129 0 .43.064.6 0 .172-.064.172.129.279.107.107-.021.321.129.45.236.016.014.034.027.052.04.003-.013.008-.026.014-.038-.03-.02-.058-.04-.085-.063-.129-.107-.344-.257-.45-.236-.107.022-.107-.17-.279-.106-.171.063-.471 0-.6 0-.128 0-.536-.108-.685 0-.086.06-.236.086-.376.097-.004-.008-.007-.017-.012-.025-.111-.203-.041-.357.07-.448.113-.091.029-.28.19-.379.16-.098.385-.3.456-.21.07.091.287.49.42.49s.378.043.386-.181c.006-.22-.087-.326.042-.47.225-.02.474-.034.511-.007.056.042.392.309.477.28.051-.017.281.008.452.03.015.041.043.084.08.121.084.084.084.189.053.263-.032.073.073.2.147.273.063.062.064.214.102.291.036.007.081.01.136-.004.115-.032.189.02.241.115.053.095.137.053.253 0 .115-.052.378.095.441.126.063.032.032.21.042.326.01.116-.063.263.053.336.116.074.084.242.22.295.138.052.19.241.274.262.084.021.241.147.262.241.021.095-.147.18-.242.221-.094.042-.273-.126-.336-.053-.063.074.021.21.074.442.023.102.045.162.07.198-.114.051-.305.062-.305.062s-.28.223-.28.307c0 .084-.014.225-.084.155s-.365-.07-.435-.028c-.07.042-.182-.168-.308-.098s-.294-.099-.309-.029c-.014.07-.196.014-.322-.041-.126-.057-.35.027-.435-.07-.084-.099-.63-.099-.813-.099-.182 0-.224.098-.308.182-.026.027-.054.042-.082.05 0 .01 0 .022.002.032l.042-.016.047-.035c.084-.084.126-.182.309-.182.182 0 .728 0 .813.098.084.098.308.014.434.07.126.056.309.112.322.042.015-.07.183.098.31.028.125-.07.237.14.307.098.07-.042.365-.042.435.028s.084-.07.084-.154c0-.084.28-.308.28-.308s.192-.01.305-.061c.032.046.071.054.13.054.105 0 .147-.073.22-.115.074-.043.243.02.316-.011.074-.032.336-.042.39.042.052.084.104.284.062.357-.042.073.053.158.106.263.052.105.273.052.347.084.073.031.241.262.21.367-.032.106.105.126.179.095.073-.031.147.053.23.106.085.052.158.031.243-.022.084-.052.22-.094.262-.02.043.073.21.21.21.252 0 .042.264 0 .39.063.125.063.263.03.4.105.136.073.262.084.272.168.011.084-.136.157-.136.2 0 .041.115.073.115.136 0 .063-.147.063-.168.116-.008.02.004.045.022.07l.062.074.021.034c.022.052-.084.231-.084.284 0 .052-.315-.01-.388-.01-.074 0-.295.241-.368.251-.063.01-.034.126-.012.225-.152.028-.3.069-.385.108-.21.098-.386.16-.603.182-.217.02-.596.308-.596.378s.021.413.386.386c.364-.029.525.048.476.126-.049.076-.441-.036-.63.09-.19.126-.309.091-.456.197-.147.104-.33.16-.385.09-.056-.07.098-.286-.021-.364-.12-.077-.463-.147-.477-.216-.014-.07.659-.211.63-.351-.027-.14-.588-.014-.77-.112-.182-.098.217-.266-.05-.308-.266-.042-.343.042-.525.077-.182.035-.203.323-.407.477-.195.148-.24.136-.225.355l-.002-.044c.03.022.067.052.105.084l.001.023c.021.245-.098.245-.245.259-.148.014-.231.238-.238.385-.005.088.016.18 0 .249-.134-.045-.266-.1-.287-.137-.043-.07-.267-.098-.379-.112-.091-.012-.341-.005-.484.052.133-.024.284-.026.35-.018.113.015.337.043.38.113.021.036.153.091.287.136-.01.046-.037.082-.099.102-.154.049-.28.385-.378.406-.098.021.02.343.098.357.032.006.049.053.065.112-.055.037-.127.068-.191.035-.126-.063-.431-.02-.484 0-.027.012-.014.065.004.13-.01 0-.022.002-.033.004l.003.035c0 .115-.137.147-.137.22 0 .057-.05.096-.11.163-.1-.075-.204-.152-.32-.152-.225 0-.288.203-.358.175-.07-.028-.07-.175-.288-.091-.217.084.03.308-.09.357-.12.05-.309.07-.379-.055-.07-.127-.371-.042-.245.132.126.175.385.386.385.533 0 .146-.322.077-.154.251.168.177.133-.083.392-.013.26.07.238.37.154.385-.083.014-.168.147-.342.042-.176-.105-.316.098-.169.091.147-.007.316.077.217.19-.098.112-.294-.043-.329.013-.035.057.182.428.084.477-.098.049-.28-.217-.442-.21-.16.006-.287-.19-.245-.33.042-.14-.28-.266-.098-.399.182-.133.505.042.505-.042s-.316-.28-.428-.154c-.112.126-.357.063-.336-.112.02-.175-.098-.358-.253-.406l-.02-.011.044-.135c.012-.032.025-.06.04-.081-.056.032-.083.146-.117.248-.136-.064-.176-.289-.316-.402-.147-.12-.12-.567.014-.7.127-.128.054-.198-.13-.296.007-.034.017-.069.03-.102-.077-.052-.168-.128-.262-.203.017-.069.025-.123.02-.147l-.013.037zm4.271-3.397c-.111.014-.532.127-.574.197-.042.07-.183.14-.266.14-.085 0-.169-.042-.239.027-.042.042-.093.069-.137.075l.03.022c.042.042.14.014.21-.057.07-.07.154-.027.239-.027.083 0 .224-.07.266-.14.019-.032.118-.073.229-.109l.067.125-.02-.037c.133-.043.285-.08.346-.087.112-.014.28.21.378.21.04 0 .093.011.145.036-.076-.117-.214-.165-.295-.165-.098 0-.267-.224-.379-.21zM7.25 11.593c.029-.154.099.127.162.113.063-.015.105-.148.161-.113.066.042-.134.428-.112.512.02.084-.169.42-.344.392-.175-.029-.252-.238-.126-.21.126.028.231-.063.133-.126s-.322-.238-.182-.435c.14-.196.28.022.308-.133zm-1.044-.973c.02-.19.274-.26.343-.19.07.07.035.337-.049.407-.084.07-.056.295.015.33.07.034.26.132.224.223-.036.09-.267.05-.302.162-.035.112-.182.223-.133.294.05.07.084.098.217.028.134-.07.181.23.168.294-.02.105-.238.09-.336.007-.098-.084-.231-.146-.245-.05-.01.074.128.156.19.256-.083.011-.146.014-.176.004-.075-.025-.246-.038-.433-.042-.049-.072-.094-.145-.072-.21.05-.14-.154-.245-.182-.413-.028-.168-.077-.42 0-.54.077-.119.091-.357.238-.343.147.014.182.224.274.14.09-.084-.077-.168-.021-.21.056-.042.259.042.28-.147zM13.658 0l.066.005c.175.042.175.182.056.182s-.126.266-.308.364c-.182.098-.197.322-.084.301.112-.02.26-.224.455-.448.196-.224.294-.301.302-.161.007.14-.113.399-.008.399.106 0 .344-.3.281-.371-.063-.07.035-.287.294-.266.26.02.337.231.197.266s.007.16-.056.266c-.064.105.112.154.112-.042s.28-.337.37-.252c.092.084.1.147.254.119.154-.028.315.056.357.119.042.063.266.133.245.238-.02.105-.196.007-.322.126s-.204.161-.315.098c-.113-.063-.253-.07-.239-.021.014.05.315.133.308.238-.006.105.182.127.21.021.026-.095.241-.086.354-.016-.032.176-.136.193-.24.17-.127-.028-.254.182-.393.182-.077 0-.156.046-.218.108v-.033c-.047.05-.084.109-.096.163-.027.126-.181.056-.181.14 0 .084 0 .168-.071.252-.07.084 0 .126.07.266s.224.126.295.168c.07.042.336.267.336.35 0 .085-.21.295-.294.351-.084.056-.197.196-.14.28.056.084.294.434.448.714.155.28-.056.154-.154.28-.098.126.042.28.07.365.028.084-.126.07-.112.14.014.07.224.098.238.154.014.056-.14.126-.07.238.07.113.238.112.252.252.015.14-.308.154-.294.267.015.111.42.252.603.462.182.21.168.266.126.378-.085.226-.589.42-.7.673-.113.252-.533.391-.73.588-.08.08-.16.188-.226.288-.11.027-.25.048-.425.048-.309 0-1.087.322-1.472.337-.386.013-.386-.155-.519-.113-.133.042-.147-.168-.287-.154-.14.015-.351-.203-.442-.175-.09.028.021-.26.126-.49.105-.231-.049-.441-.084-.533-.035-.09.05-.203-.05-.329-.097-.126-.118-.21-.013-.273.105-.063.077-.301.21-.301.134 0 .337-.014.33-.161-.007-.147.12-.224.252-.26.133-.034.119-.202.28-.216.162-.014.428-.267.484-.477.056-.21.162-.273.26-.21.097.063.09-.021.084-.168-.008-.147.02-.28-.169-.364-.12-.054-.243-.123-.381-.157l.034.011.006.039c-.053-.013-.109-.02-.167-.02l-.09.008c-.252.042-.392-.063-.497.05-.105.111-.161.188-.309.244-.147.056.022.231-.182.385-.203.154.12.309.05.456-.07.147-.484.427-.73.546-.245.119-.259.182-.448.26-.19.076-.155.329-.33.37-.175.043-.09.169-.224.217-.133.05-.126.217-.126.365 0 .147-.203.308-.175.462.028.154.077.455.056.533-.02.076.224.02.336.09.112.07.449.393.449.498 0 .105-.323.28-.28.385.042.105-.225.357-.428.4-.203.041-.245.188-.266.286-.021.098-.014.526-.077.673-.063.147-.154.511.007.329.16-.182.238-.218.168-.028-.07.19-.217.483-.266.448-.05-.035-.14-.238-.168-.07-.029.168-.113.288-.274.217-.161-.07-.364-.049-.392.036-.028.083-.14.02-.147.153-.007.134.049.274-.176.28-.224.008-.322.106-.37.008-.05-.098 0-.301-.008-.4-.007-.098-.196-.055-.133-.217.063-.16.049-.23-.098-.357-.148-.126-.105-.252-.239-.427-.133-.176-.013-.364-.168-.49-.154-.127-.217-.302-.21-.477v-.044c.019-.003.037-.004.055-.004-.03-.008-.068-.007-.105-.002-.003-.14-.049-.19-.112-.215-.02-.008-.038-.036-.055-.071l-.05-.113c-.025-.053-.051-.093-.084-.075-.077.042-.015.259-.12.343-.105.084-.259-.021-.329.07-.07.091-.603.61-.883.652-.28.041-.414-.113-.553-.148-.14-.035-.59-.266-.498-.392.091-.126.196.014.196-.147s.168-.07.119-.19c-.049-.119-.175-.146-.252-.028-.077.12-.266.14-.266.036 0-.105.133-.168.035-.28-.099-.113.168-.294.161-.14-.007.153.217.174.189.049-.028-.127.12-.203.245-.196.127.006.07-.287-.084-.148-.154.14-.287.246-.336.126-.05-.119-.133.085-.245-.076-.112-.161.12-.182.035-.288-.084-.104-.084-.188 0-.224.084-.035.175-.147.049-.174-.126-.029.05-.12.056-.176.007-.056-.217-.119-.182-.238.035-.12.119-.273.217-.21.098.063.274.049.176-.049-.099-.099.076-.246.216-.217.14.028.099-.203.253-.169.154.035.448.078.406-.007-.042-.084-.329-.084-.252-.189.077-.105.357-.042.455-.168.099-.126.365-.014.26-.161-.105-.147-.12-.273.056-.266.065.003.103.044.13.09l.044.087c.02.038.043.057.085.026.032-.024.051-.063.066-.107l.04-.133c.021-.064.053-.114.126-.117.168-.007.076-.203.294-.301.217-.098.392-.28.42-.169.028.113.274.036.148-.063-.126-.098-.337-.266-.267-.294.07-.028.309 0 .33-.105.02-.105.294.063.294-.042 0-.105-.105-.231 0-.322s-.014-.385.063-.434c.077-.05.308.055.371-.063.064-.12-.118-.162.078-.351.196-.189.42-.448.434-.595.014-.147.175.02.175-.147 0-.168.099-.336.19-.343.09-.008.174-.105.224-.197.049-.09.189-.006.189.092 0 .097.245.035.133-.077-.112-.113.133-.176.042-.253-.09-.077-.203-.105-.294.021-.09.127-.21.091-.28.042-.07-.049-.274.05-.463.169-.189.119-.231.041-.35.175-.12.133-.372.126-.162-.014s.54-.19.582-.323c.042-.132.28-.175.203-.252-.077-.076.14-.07.302-.23.16-.162.21-.33.28-.225.07.106-.203.322-.112.392.09.07.175-.231.259-.126.084.105.189.274.21.126.021-.147.147-.118.245-.027.098.09.113-.064.043-.127s.063-.126-.064-.168c-.126-.042-.28.147-.3.021-.022-.126.174-.21.244-.322.07-.112.309-.14.323-.042.014.098.182.091.168-.021-.014-.112.035-.133.154-.112.12.02.133-.12.042-.217-.09-.099-.014-.105.133-.133.147-.029.274-.147.33-.029.056.12-.105.358.035.273.14-.084.308-.111.266.022-.042.133.161.252.161.098s.063-.267-.112-.309c-.175-.042.14-.21.154-.09.014.119.21.203.253.154.042-.05.238.09.224.028-.014-.063-.372-.19-.266-.239.105-.049.259-.09.357-.006.098.084.33.014.133-.099-.196-.111-.203-.321-.028-.315l.134.006c.133.004.251-.004.251-.083 0-.104.145-.124.169-.042.014.05-.12.245-.253.245s-.196.218-.097.183c.097-.035.048.343.175.308.126-.035.132-.224.049-.273-.085-.05.028-.042.112-.183.084-.14.259-.238.33-.112.07.126.174.035.104-.07-.07-.105.091-.125.084-.182-.006-.056.28.098.337.042.056-.056.084-.252.26-.21zm-3.164 10.342c.266-.007-.266.687-.322.617-.069-.086.056-.61.322-.617zm3.216-1.324c.252-.048.694.147.897.091.051-.014.082-.03.103-.048.114.164-.038.186-.096.31-.063.138-.148.159-.158.243-.01.084.02.147.032.273.01.126.031.147.105.252.073.105-.063.105-.127.158-.035.03-.036.079-.017.13-.17-.021-.4-.046-.452-.029-.084.028-.42-.238-.476-.28-.037-.028-.287-.013-.511.008l.006-.008c.14-.147.035-.217-.098-.19-.133.029-.182-.027-.28-.16-.099-.133.035-.19-.099-.302-.133-.112.168-.147.288-.273.119-.126.63-.126.883-.175zm-1.577.694c.252-.07.378.014.301.09-.077.078-.364.316-.49.323-.1.006-.063-.343.189-.413zm-4.16-3.894c-.09-.023-.339.09-.474.315-.135.225-.09.36-.045.472.045.113-.113.248 0 .473.113.225-.045.27-.022.45.022.18.293.158.315.338.023.18-.09.247-.18.247s-.068.18.022.225c.09.045.068.36.023.45-.046.09-.338 0-.316.113.023.113-.067.292-.067.383 0 .073-.015.283-.07.32.097.068.12-.224.12-.314s.09-.27.067-.383c-.022-.112.27-.022.316-.112.045-.09.067-.406-.022-.45-.09-.046-.113-.226-.023-.226s.203-.068.18-.247c-.023-.18-.293-.158-.315-.338-.023-.18.135-.225.022-.45-.113-.225.045-.36 0-.473-.045-.112-.09-.247.045-.472.135-.226.383-.338.473-.315l-.033-.002zm2.292-3.634c-.168-.053-.086.219-.086.347 0 .135-.226.135-.36.135-.136 0-.36.113-.36.27 0 .158-.203.248-.136.338.068.09-.023.18-.113.248-.09.067-.18.292-.247.36-.068.067.045.18-.09.27-.135.09-.293.022-.36.09-.068.067 0 .225-.023.428-.023.202-.18.427-.315.607s.045.226.113.247c.067.023.067.136 0 .27-.029.057-.072.074-.12.074.066.014.132.008.17-.067.067-.135.067-.248 0-.27-.068-.023-.248-.068-.113-.248s.293-.405.315-.607c.023-.203-.045-.361.023-.429.067-.067.225 0 .36-.09.135-.09.022-.202.09-.27.068-.067.157-.292.247-.36.09-.067.18-.157.113-.247-.067-.09.135-.18.135-.338 0-.157.225-.27.36-.27.135 0 .36 0 .36-.135 0-.108-.057-.317.024-.35z" transform="translate(-436.000000, -1432.000000) translate(424.000000, 1263.000000) translate(12.000000, 169.000000)"/>
                </g>
            </g>
        </g>
    </g>
</svg>
