<svg xmlns="http://www.w3.org/2000/svg" width="24" height="24" viewBox="0 0 24 24">
    <g fill="none" fill-rule="evenodd">
        <g fill="#98A0A7">
            <g>
                <g>
                    <path d="M17.78 17.162c-.028.017-.047.022-.055.004-.027-.064-.156-.091-.156.046 0 .138.239.184.413.092.158-.083.44-.22.475-.291.035-.02.06-.037.061-.052.003-.023-.004-.054-.012-.082.041-.006.094-.013.165-.016.23-.009.47-.082.404-.202l-.008-.01c.089-.08.24-.21.277-.21l.32-.002.112-.002-.432.004c-.038 0-.189.13-.277.209-.049-.06-.147.037-.286.02-.147-.018-.46.074-.422.165.025.064.055.057.147.044.008.028.014.059.012.082-.002.014-.026.032-.062.051.004-.008.006-.015.004-.02-.019-.046-.037-.019-.129.045-.092.065-.128-.018-.266-.027-.086-.006-.187.082-.257.132zm-1.76-1.547c.045-.055.214.011.296.041-.032.027-.067.044-.106.042-.156-.01-.487.192-.413.266.073.073.165-.046.266.046.101.091.322-.11.468-.193.147-.083-.027.11.074.11.101 0 .046.073.156.129.11.054.248-.074.386-.074.137 0 .117.135.193.083.013-.01.02-.02.024-.032.035.021.08.05.118.081-.014.006-.023.013-.023.024 0 .055-.239.037-.432.083-.192.046-.404.266-.312.266.092 0-.009.174-.046.358-.053.268.019.477.156.395.138-.083.184-.156.147-.303-.036-.147.01-.35.055-.44.046-.093.175-.037.212-.157.036-.12.22-.12.321.037.101.156-.064.257-.083.376-.018.12.11-.073.22-.036.107.035.025.24.078.263l.005.002c.055.01.147-.183.147-.321s.074-.092.064-.184c-.009-.091.147.074.267.065.14-.011-.01-.129-.074-.285-.064-.156-.257-.055-.385-.1-.103-.038-.259-.062-.317-.043-.04-.031-.083-.06-.118-.082.02-.066-.1-.164-.116-.289-.019-.147-.202 0-.22-.156-.02-.156-.322-.183-.442-.183-.09 0-.17.171-.27.252-.082-.03-.251-.096-.296-.041-.011.013-.023.022-.036.027zm7.255-.906c.091-.036.183.019.098.068-.086.049-.055.134-.147.232s-.037.22-.019.147c.019-.073.202-.049.16-.006-.043.043.073.061.091.122.019.061.184.105.184.037 0-.067.233.006.165.043-.067.037-.085.238-.012.202.073-.037.165-.012.086.049-.08.06-.025.177.012.11.037-.067.147.086.092.183-.055.098-.294.037-.257-.024.036-.061-.055-.098-.129-.061-.073.037-.171.14-.178.073-.006-.067.147-.159.05-.147-.099.013-.099-.116-.19-.048-.092.067-.184.06-.294.048-.11-.012-.239.05-.319.007-.116-.063.129-.202.062-.251-.068-.05.03-.129.116-.123.086.007.092-.104.092-.195 0-.092.245-.429.337-.466zm-8.672-.636c-.074-.092-.257-.036-.257.083 0 .12.096.34.312.459.184.1.074.378.175.367.082-.01.082-.202.018-.321-.064-.12-.175-.496-.248-.588zM3.078 12.761c.092-.106.166-.11.161-.06-.004.05.092.073.041.101-.05.028-.151.028-.146.069.004.041.119.06.078.124-.042.064-.23.193-.271.193-.042 0-.046-.046-.11 0-.065.046-.12-.097-.088-.161s.138-.005.152-.055c.014-.05.092-.106.183-.211zm9.056-1.422c0-.11-.479.124-.563.208-.083.084-.233 0-.317-.116-.084-.117-.45-.07-.3.003.15.073.157.194.066.194s-.15.098-.164.16c-.015.062-.229.041-.212.07.051.084.413.069.562.058.15-.011.052-.135.176-.157.124-.022.113.011.255-.113.143-.124.497-.197.497-.307zm4.315-3.792c.303-.275.817-.275.817-.201 0 .073-.092.055-.211.183-.12.129-.175.22-.11.294.064.073 0 .165.046.266.045.1.358.257.348.138-.009-.12-.137-.083-.22-.156-.083-.074.165-.147.11-.193-.055-.046-.193-.174-.064-.303.128-.128.367-.092.44-.174.074-.083.35-.138.405 0 .055.137.11.165.147.248.036.082-.083.348-.01.348.074 0 .322-.21.34-.11.018.101.147.138.129.046-.019-.092.128-.174.23-.174.1 0 .477.036.44.174-.037.138.257.064.257.147 0 .082.193.294.239.193.046-.101.284-.092.312-.01.028.083-.083.156-.174.166-.092.009 0 .119.073.064.074-.055.266-.129.266-.055 0 .073.037.138.147.1.11-.036.368.038.322.102-.046.064-.101.165-.037.165s.083-.11.147-.073c.064.036.165.128.11.174-.055.046-.128.018-.12.092.01.073.286.018.24.119-.046.101-.267-.064-.285.064-.018.129.156.22.275.23.12.009.276.156.368.128.092-.027.367.129.367.193s.028.165.175.156c.147-.01.349.1.238.147-.11.046-.275.165-.266.266.01.1-.184.018-.211.12-.028.1-.046.201-.22.054-.175-.146-.193-.284-.304-.293-.11-.01-.202-.202-.293-.101-.092.1.064.174-.056.23-.119.054.212.311.34.311.129 0 .211.166.211.285 0 .12.24.073.11.238-.128.166-.385.101-.56-.036-.174-.138-.45-.092-.312-.055.138.036.615.459.542.55-.066.082-.533-.137-.643-.247-.11-.11-.404-.056-.496-.156-.091-.102.028-.249-.12-.267-.146-.018-.118-.183-.238-.21-.12-.028-.294-.074-.312.018-.018.091-.037.045-.202.036-.165-.009-.367.083-.46-.018-.09-.101.02-.257.12-.257.101 0 .028-.138.276-.055.248.082.514-.01.487-.101-.028-.092-.212-.248.055-.349.266-.1.56.12.523.193-.037.073.395-.064.303-.147-.092-.083-.202-.22-.321-.156-.12.064-.331.083-.34.027-.01-.055.11-.201 0-.357-.11-.156-.2-.252-.312-.202-.083.036-.083-.211-.193-.202-.11.009-.239.156-.322.092-.082-.065.212-.101.202-.175-.009-.073-.303-.147-.312-.211-.01-.064-.087-.03-.11-.101-.028-.083-.165-.11-.248-.156-.083-.046-.11.073-.046.101.064.028.129.12.028.128-.03.003-.077-.005-.132-.016l-.172-.039c-.084-.018-.153-.029-.165-.009-.027.046-.128.101-.21.092-.083-.01-.285-.073-.46-.082-.174-.01-.349.018-.413-.065-.064-.082-.064-.082-.211-.046-.147.037-.395-.119-.404-.202-.01-.082.192-.046.312-.027.12.018.202-.046.046-.092-.156-.046-.423-.01-.441-.083-.018-.073-.11-.44.193-.716zm.578 2.92c.01-.166.23-.248.23-.138 0 .11.156.137.257.192.1.055.422.138.404.239-.018.1.303.138.285.23-.019.091-.294.082-.423-.01-.128-.092-.22-.064-.266.01-.046.073-.239.201-.349.192-.14-.012 0-.165-.11-.165s-.23.092-.257.01c-.028-.084.22-.12.174-.276-.046-.156.046-.12.055-.285zm-6.92-.525c-.029-.073-.423.019-.51.099-.088.08-.606.135-.548.16.182.08.336-.022.401-.065.066-.044.263.018.26.09-.004.074-.197-.007-.227.034-.03.04.084.094-.01.131-.096.036-.048.113-.118.12-.069.007.022.073.092.077.07.004.182 0 .186-.062.004-.062.175-.2.245-.15.069.051-.201.245-.15.256.051.01.135-.088.263-.117.128-.03.124-.066.062-.11-.062-.043.014-.105.138-.084.125.022.165 0 .285-.15.12-.149-.07-.16-.113-.09l-.033.032c-.072.049-.22.07-.317.015-.117-.065.124-.113.095-.186zm8.922-.54c.101-.01.22 0 .266.064.063.087.083.257-.027.275-.11.018-.33.138-.423-.018-.091-.156.083-.312.184-.321zM12.72 7.437c-.027-.036.24-.156.404-.091.166.064.065.201-.027.293-.092.092-.046.367.083.468.128.101-.092.166.082.294.175.129.22.092.33.165.111.074.377.138.368.276-.009.137-.239-.055-.294.009-.055.064-.22.092-.202.138.019.045.083.1.156.009.074-.092.285.11.138.183-.147.074-.535.108-.652-.009-.046-.046-.248-.037-.266-.092-.019-.055-.083-.119-.156-.009-.074.11-.147.138-.303.129-.157-.01-.303.146-.625.137-.321-.009-.459-.046-.45-.202.01-.156-.239.01-.477-.1-.24-.11-.264-.111-.285-.193-.018-.074.377-.147.606-.138.23.01.533.028.533-.037 0-.064-.45-.147-.707-.1-.258.045-.606-.019-.606-.13 0-.11.633-.146.541-.21-.092-.065-.422.082-.486.064-.071-.02.018-.101-.083-.101s-.211-.083-.101-.174c.11-.092.1-.138.064-.147-.037-.01.092-.12.377-.22.284-.101.459-.22.523-.12.064.101.138.202-.037.239-.174.037.101.11.156.064.055-.046-.046-.174.138-.193.184-.018.35.074.33.156-.018.083-.036.138.065.055.101-.082.211.083.239-.018.027-.1-.175-.1-.156-.174.018-.074.312.046.385.147.074.1.083.376.157.357l.078-.016c.05-.012.087-.032.05-.094-.055-.091-.202-.413-.138-.504.065-.092.147.046.22 0 .074-.046.285.165.285.11 0-.055-.23-.184-.257-.22zm-3.04-.44l.028.009c.037.046.313.165.414.12.1-.047 0 .128.128.045.129-.082.257-.055.423.046.165.101.33.175.257.23-.073.055-.505.238-.661.275-.156.037-.055.174-.166.202-.11.027-.192.073-.192.202l-.008.057c-.024.082-.103.106-.195.099-.11-.01-.082.055-.202.055-.119 0-.064.092-.137.092-.111 0-.129-.294-.294-.33-.165-.037-.386-.028-.257-.175.128-.147.239-.266.183-.312-.055-.046.23-.248.147-.312-.082-.064-.21-.193-.092-.193.12 0 .616-.147.652-.101zm4.684.266c-.138-.055.33-.156.267-.064-.065.092.21.073.146.193-.064.119-.33.128-.266.22s.239-.018.257.1c.019.12.083.02.028-.082-.055-.1.165-.11.128.028-.036.137-.045.514-.275.504-.23-.009-.165.24-.367.101-.202-.137-.175-.275-.423-.348-.248-.074-.321-.276-.156-.303.165-.028.239.275.413.037.175-.24-.128-.101-.23-.184-.126-.103.23-.257.359-.165.128.092.257.018.12-.037zm3.756.092c.055-.12.275.046.413.018.138-.027.524.156.524.257 0 .107-.368 0-.496.083-.129.082-.303.037-.313-.101-.009-.138-.183-.138-.128-.257zM12.298 6.06c.12-.019.064.137.147.22.083.083.138.211.239.193.1-.019.1-.138.23-.083.128.055.1.386-.074.422-.175.037-.367-.046-.468.028-.102.073-.193-.083-.294.018-.101.101-.533.276-.735.23-.202-.046-.248-.175.01-.193.256-.018.55-.174.302-.165-.248.009-.44.11-.395-.028.046-.137-.073-.037-.165.064-.092.101-.165.074-.285.028-.119-.046-.238-.037-.266-.073-.043-.058.257-.083.367-.12.11-.036-.064-.036-.21 0-.148.037-.056-.147.155-.137.212.009.166-.037.019-.037-.147 0-.156-.129-.028-.138.129-.009.083-.137.22-.128.139.009.083.156.221.12.138-.038.468.128.487.22.018.091.44.137.477.082.037-.055-.238-.12-.156-.156.083-.037.138-.12-.018-.138-.156-.018.102-.211.22-.23zm2.544.009c-.09-.13.358-.147.523-.074.165.074.266.166.44.129.175-.037.598.11.552.165-.046.055-.312.184-.065.193.248.01.202.174.34.1.138-.073.414.074.588-.027.175-.1 1.157-.018 1.166.083.01.1-.055.303-.183.33-.129.028-.423.028-.551-.046-.129-.073-.019.12-.46.11-.44-.009-.643-.024-.688-.128-.028-.064-.064-.009-.147.064-.083.074-.239.028-.34-.046-.1-.073-.174.056-.239-.128-.064-.184.074-.22-.009-.321-.082-.101-.22-.303-.275-.211-.055.091-.588-.101-.652-.193zm-.01.762c-.072-.057.34-.34.524-.202.184.137.266.34.101.349-.165.009-.542-.083-.624-.147zm-.835-.793l.046.013c.165.064.376.174.385.082.01-.092.313.156.24.312-.074.156.11.147.018.211l-.034.034c-.04.059-.01.124-.14.131-.157.01-.359.074-.432-.018-.074-.092.156-.23.045-.257-.11-.027-.348.092-.495.01-.147-.083-.24-.11-.331-.23-.067-.088-.147-.266.028-.257.174.01.23.165.34.312.11.147.21.055.128-.01-.083-.063-.101-.265.073-.146.175.12.368.174.24.064-.13-.11-.23-.303-.065-.238zm-3.36-.208c0-.055.036-.165.128-.082.092.082.22.036.165.091-.055.055-.174.037-.129.11.046.074-.009.092 0 .157.01.064-.156.027-.165.082-.01.055-.126.167-.193.046-.046-.082.037-.202-.064-.183-.101.018-.101.128-.12.192-.018.065-.045.156-.137.092-.092-.064-.074.156-.175.156-.119 0-.1-.211-.147-.165-.046.046-.066.134-.165.1-.055-.017-.073-.008-.147.028-.073.037-.009-.091-.073-.119-.065-.027.137-.156.275-.147.138.01.147-.12.294-.193.147-.073.276-.23.377-.192.1.036.275.082.275.027zM19.7 3.115c-.037-.083.247-.174.358-.064.11.11.248-.11.367-.028.12.083.826.046.725.083-.1.036-.321.22-.082.128.238-.092.459-.12.468-.064.01.055.248-.037.239.064-.01.101.165.156.321.129.156-.028.322.018-.055.202-.376.183-.523.21-.634.183-.11-.027-.578.074-.486.11.092.037.633-.082.615.037-.018.12-.312.083-.689.294-.376.21-.567.34-.652.34-.12 0 0 .146-.174.183-.175.037-.34-.083-.404-.028-.064.055.092.212-.257.193-.35-.018-.652.12-.469.12.184 0 .56-.037.551.119-.009.156-.248.422-.413.422-.165 0-.386-.046-.386.027 0 .074.138.157-.036.202-.175.046-.386.065-.542.019-.156-.046-.266.156-.01.119.258-.037.41-.008.432.083.019.073.184-.101.248 0 .064.1.037.183-.092.183-.128 0-.128 0-.23.074-.1.073-.247.1-.33.027-.082-.073-.128-.1-.312-.1s-.367-.037-.422.045c-.055.083-.285.055-.368-.018-.082-.074-.55.046-.68-.074-.115-.107.258-.21.423-.21.166 0 .156-.111.01-.13-.148-.018-.212-.183.027-.201.239-.019.33.082.358.183.028.101.276.138.276.028 0-.11-.34-.184-.24-.275.102-.092.249-.248.047-.129-.202.12-.505.138-.496-.01.01-.146.33-.275.533-.238.202.037.56.202.56.11 0-.091-.276-.046-.404-.248-.129-.201-.257-.247-.386-.247s-.184-.321-.01-.33c.175-.01.506-.01.653.146.147.156.505.22.349.101-.156-.12-.414-.23-.257-.275.156-.046.505-.028.68-.147.174-.12.008-.285 0-.174-.01.11-.552.238-.662.21-.11-.027-.193-.064-.22.028-.028.092-.597.028-.588-.046.009-.073.055-.21-.065-.1-.119.11-.514.073-.523-.02-.01-.09-.193-.036-.193-.128 0-.091.22-.146.065-.137-.157.009-.193-.028-.083-.083.11-.055.01-.11-.12-.027-.128.082-.348.027-.156-.046.193-.074.395-.092.441-.037.046.055.074-.046.165-.128.092-.083.322 0 .322.045 0 .046.248-.018.138-.1-.11-.083.303-.037.202-.12-.101-.082.248-.055.358.037.11.092.248.037.248-.064s.386.018.34-.074c-.046-.091.036-.128.128-.1.092.027.175-.028.11-.056-.064-.027.166-.073.377.019.21.091.128-.092.321-.065.193.028.404-.073.514.019.11.092.193.092.157.009zM11.958 5.5c.193-.028.248.064.129.083-.12.018-.184.082-.083.082.101 0-.083.202-.294.184-.21-.019-.275-.074-.275-.184 0-.138.33-.138.523-.165zm1.075-.597c.119-.046.597-.036.597.083 0 .12.055.055.137.018.083-.036.12.147.22.147.102 0 .295.055.249.147-.046.092.183.11.082.23-.1.119-.238.073-.385-.046-.147-.12-.33-.166-.551-.101-.22.064-.257-.046-.267-.074-.024-.072.294.028.33-.055.038-.082-.164-.202-.275-.128-.11.073-.257-.175-.137-.22zm1.515.248c.055-.082.413.175.431.138.019-.037.303-.028.22.083-.082.11.102.11-.018.155-.119.046-.23.065-.367.065-.138 0-.321-.358-.266-.44zm.817-1.184c-.147-.027.11-.174.358.046.248.22.625.257.652.358.028.1.22.202.193.092-.027-.11.239-.037.147.036-.092.074.165.101.092.193-.073.092.037.156.202.138.165-.019.211.046.202.092-.013.063-.211.064-.349.119-.138.055-.129.23-.211.174-.083-.055-.092.276-.212.23-.119-.046-.247-.064-.293.01-.046.072-.524-.083-.487-.139.037-.055-.23-.156-.294-.22-.064-.064.404-.073.368-.174-.037-.101-.46.046-.607-.019-.146-.064-.066-.152-.202-.22-.147-.073-.091-.156.074-.11.165.046.312-.074.11-.101-.202-.028-.193-.23-.037-.23.157 0 .368-.027.175-.1-.193-.074.018-.092.138-.083.119.01.128-.064-.019-.092zm-3.581 1.258c.092-.056.45-.037.45.11s-.285.1-.35.046c-.063-.055-.155.064-.247.027-.092-.036-.175.038-.248-.018-.12-.092.303-.11.395-.165zM20.94 16.51l-.071.058c-.101.092-.193-.073-.257-.009s-.078.152-.152.152c-.073 0-.032.055-.119.073-.087.018-.156.184-.133.225.023.041-.097.087-.028.106.07.018.115.123.055.16-.06.037-.128.046-.174-.014-.046-.06.004.083-.101.088-.106.004-.335.054-.335.105 0 .05.361-.08.316.01-.013.027-.21.086-.303.082-.091-.005-.165.027-.114.06.05.032-.033.174-.11.256-.079.083-.097.074-.147.01-.051-.065-.056.073-.01.087.046.014.037.133-.032.27-.069.138-.115.166-.092.06.023-.105.005-.179-.055-.248-.06-.068-.014-.151.019-.202.032-.05-.046-.05-.07 0-.022.05.014.262-.031.271-.046.01-.143.032-.083.074.06.041.184.124.133.174-.05.05-.078.092.005.101.082.01.133.12.073.142-.06.023-.037.065.064.07.102.004-.004.09-.05.123-.046.032-.12.028-.142-.01-.023-.036-.083.02-.05.074.031.055.1.12-.02.138-.119.018-.21.092-.22.151-.009.06-.068.046-.124.046-.055 0-.151.092-.17.165-.018.074-.105.037-.183.106s-.239.294-.243.431c-.005.138.04.308.114.404.074.096 0 .115.06.198.06.082.124.344.115.417-.01.073-.083.165-.092.243-.01.078-.147.019-.156-.027-.01-.046-.069-.16-.143-.18-.073-.017.01-.15-.082-.215-.092-.064-.046-.147-.087-.206-.042-.06.073-.156-.005-.234-.078-.078-.142-.166-.207-.23-.064-.064-.124.005-.192.064-.07.06-.134.033-.143-.022-.009-.056-.096-.138-.193-.138-.096 0-.275.087-.275.032 0-.055-.041-.12-.083-.055-.041.064-.037.037-.147.032-.11-.005-.234.05-.179.092.055.04-.023.064.042.114.064.05.133.115.046.106-.088-.01-.18-.183-.184-.128-.005.054-.005.078-.092.073l-.046-.001c-.054 0-.08.002-.128-.05-.06-.064-.129-.128-.138-.064-.01.064-.129.05-.17-.004-.041-.056-.097-.065-.101-.023-.005.04-.05.009-.106-.01-.055-.018-.041.101-.128.083-.088-.018-.11-.01-.101.041.009.05-.129.18-.202.17-.074-.009-.124-.009-.124.046s-.096.092-.152.129c-.055.036.065.11-.05.197-.1.075.07.103.06.267-.032-.02-.063-.034-.086-.032-.079.005-.255-.103-.29-.103-.034 0-.03-.084-.059-.128-.03-.044-.01-.127-.049-.157-.04-.029-.157-.142-.196-.28-.04-.136-.28-.205-.368-.21-.088-.005-.137.182-.162.191-.024.01-.191-.098-.24-.122-.05-.025-.074-.074-.074-.133 0-.059-.103-.152-.132-.161-.03-.01-.236-.211-.236-.211h-.323l-.069.088-.589.005s-.45-.167-.534-.186c-.084-.02-.23-.123-.23-.123l-.477.063c-.021-.047-.036-.09-.046-.131-.023-.087-.134-.216-.193-.23-.06-.013-.087.019-.175-.036-.087-.055-.17-.106-.257-.106s.014-.087-.105-.192c-.12-.106-.216-.189-.216-.235 0-.045.046-.128-.028-.16-.073-.032-.073-.046-.082-.128-.01-.083-.055-.033-.106-.115-.05-.083-.1-.147-.156-.18-.055-.031-.014-.183-.064-.27-.05-.087-.055-.156-.023-.27.032-.115-.01-.244-.069-.336-.06-.091.041-.234.055-.32.014-.088.01-.372.032-.51.023-.138-.023-.198.041-.189.065.01.07-.032 0-.068-.068-.037-.018-.097-.091-.193-.074-.097-.101-.22-.106-.275 0-.006-.002-.011-.004-.017l-.022-.032c-.029-.03-.07-.056-.07-.084 0-.042-.074-.005-.106-.046s-.046-.115-.11-.115-.083-.087-.138-.092c-.055-.004-.087-.119-.142-.11-.055.01-.101-.018-.096-.064.004-.046-.129-.055-.065-.096.065-.042.124-.037.216.032.092.068.193.064.27.06.079-.005.221.21.244.27.023.06.18.046.239.11.06.065.16.023.129.083-.014.025-.021.057-.022.085-.002.04.01.075.04.075.05 0 .078.101.027.129-.05.027-.04.105.028.105.069 0 .087-.124.064-.21-.023-.088.032-.143-.036-.216-.008-.008-.014-.018-.02-.027l5.706-.03s0-.017.004-.036c-.004.019-.004.035-.004.035l-5.707.03c-.053-.082-.078-.223-.159-.193-.037.014-.069-.064-.124-.06-.055.005-.147.042-.156-.023-.009-.064-.037-.156-.078-.124s-.151-.004-.179-.055c-.028-.05-.083-.105-.142-.087-.06.019-.22-.041-.22-.082 0-.042.004-.106-.047-.11-.05-.005-.06-.124.01-.124.068 0 .027-.07-.014-.092-.042-.023-.129-.156-.17-.106-.041.05-.129 0-.087-.069.041-.068.004-.16-.046-.119-.05.041-.133.06-.18.01-.01-.013-.016-.027-.018-.04v-.082l-.018-.035c-.046-.041.11-.041.055-.087-.047-.039-.083-.065-.088-.105h.001v-.023c.01-.055-.087.037-.087-.013 0-.051.037-.138-.018-.147-.055-.01-.06.105-.097.05-.036-.055-.105-.078-.105-.037 0 .042-.008.145-.046.115-.041-.032-.101-.078-.115-.041-.014.037.01.12-.069.069-.078-.05.023-.138-.004-.202-.028-.065-.088-.156-.028-.16.06-.005.129.141.179.086.05-.055.101-.05.106-.105.004-.055-.101-.211-.161-.207-.06.005-.069.11-.005.115.065.005.124.083.083.101-.041.018-.152-.064-.174-.138-.023-.073-.11.106-.134.028-.023-.078-.045.078-.082.073-.037-.004-.05-.188-.023-.215.027-.028.114-.005.114-.055s.097-.046.07-.143c-.028-.096-.102-.197-.125-.142-.023.055.07.16.005.197-.064.037-.096.101-.124.07-.028-.033.028-.13-.028-.148-.055-.018-.073.074-.032.138.042.064.055.207.019.225-.037.018-.034-.1-.097-.12-.046-.013.01-.128-.064-.142-.073-.013-.174-.137-.17-.202.005-.064.156-.082.142-.036-.013.045.124.114.152.032.028-.083.028-.207-.014-.271-.041-.064-.124-.156-.082-.018.04.137.073.257-.019.174-.092-.083-.05-.004-.165-.087-.115-.083.027.174-.12.1-.146-.073-.183-.137-.243-.197s-.188-.096-.243-.119c-.055-.023-.143-.027-.101-.073.041-.046.115-.07.041-.129-.073-.06-.11.11-.252.083-.143-.028-.12-.129-.184-.124-.064.005-.312.037-.45.014s-.234-.037-.234-.074c0-.036 0-.087-.046-.041-.046.046-.069.069-.124.018-.055-.05-.106-.018-.165.033-.06.05-.101-.056-.023-.074.078-.018.165-.01.092-.069-.074-.06-.12.05-.161-.037-.017-.035-.037-.045-.058-.047l-.064.002-.03-.01c-.046-.032-.096-.06-.114.01-.019.068-.101.013-.07.1.033.088.143.101.093.124-.05.023.036.092-.005.106-.041.014-.152-.06-.298.014-.148.073-.303.224-.41.224-.105 0-.16-.045-.082-.068.078-.023.156-.083.074-.092-.083-.01-.078-.064-.014-.152.064-.087 0-.11.083-.188.082-.078.124-.082.215-.041.092.041.12-.073-.004-.078-.124-.005-.06-.087-.124-.05-.064.036-.12.119-.18.123l-.033.013c-.024.02-.027.063-.072.111-.06.064-.133.078-.138.152-.004.073-.087.128-.137.123-.05-.004-.184.115-.17.147.014.032.165.032.165.083 0 .05-.046.096-.106.105-.06.01-.013.129-.073.152-.06.023-.078-.005-.156.06-.078.064-.17.137-.23.142-.06.005-.027.096-.082.11-.055.014-.35.151-.377.216-.027.064 0 .1-.124.124-.124.023-.142.078-.184.073-.04-.005-.11-.018-.151.018-.041.037-.133.097-.17.056-.037-.042-.064-.051-.073.004-.01.055-.22.16-.248.133-.041-.04.114-.12.151-.225.037-.105.294.005.322-.032.027-.036.23-.261.349-.275.119-.014.179-.202.252-.22.073-.019-.028-.204.073-.331.074-.092.138-.16-.004-.096-.142.064-.22.046-.225-.023-.005-.069-.087.023-.087.105 0 .083-.032.065-.129-.041-.096-.106-.27-.087-.285-.023-.013.064-.234.083-.225.028.01-.055-.032-.17.019-.207.05-.037-.028-.183-.083-.234-.055-.05-.01.083-.106.087-.096.005-.179.097-.243.037-.064-.06-.165-.225-.257-.243-.092-.019.101-.133.01-.198-.093-.064-.074.037-.189-.123-.115-.161.06-.019.101-.184l.025-.057c.061-.088.186-.035.182-.095-.005-.068-.028-.21.082-.21s.175.142.262.073c.087-.069.055-.174.11-.17.055.005.152.055.253-.018.1-.074.032-.216-.023-.276-.055-.06.165-.045.06-.142-.106-.096-.313.069-.368.129-.055.06-.12-.023-.188-.023-.069 0-.326.06-.44 0-.116-.06-.084-.129-.157-.152-.074-.023.128-.082.037-.1-.092-.02-.326-.06-.299-.12.028-.06.184-.101.28-.16.097-.06.161.05.18-.02.018-.068-.037-.036.114-.123.152-.087.262-.055.257-.01-.004.047-.078.152 0 .143.078-.01.23-.041.267.01.036.05.082.018.174-.051.092-.069.271-.005.248-.069-.023-.064-.142-.01-.22-.046-.078-.037.023-.165-.07-.179-.091-.014-.325.05-.348-.009-.023-.06-.152-.307-.34-.358-.188-.05-.266-.096-.23-.147.037-.05-.013-.128.056-.128s.4.027.523-.106c.124-.133.041-.174.087-.22.046-.046.198-.211.244-.202.046.01.238.014.303-.055.064-.069.087.083.151.018.065-.064-.041-.06-.046-.11-.004-.05.106-.069.193-.06.087.01.23.019.326-.068.097-.087.17-.147.216-.133.046.013.17.036.165.078-.004.041-.12.055-.082.092.036.036.128.027.16-.028s.11-.069.106-.028c-.005.042.018.092.1.083.083-.01.313-.073.359-.005.046.07-.018.115.064.106.083-.01.07.082.133.06.065-.023.335-.083.528-.037.193.046.29.151.441.128.152-.023.253.01.326.046.074.037.285.01.39-.013.106-.023.303.068.437.119.025.01.058.016.094.02l.07.004c.147.006.313-.006.313.026 0 .046.321.238.482.225.16-.014.276.119.312.082.037-.036-.009-.064-.082-.119-.074-.055.036-.133.147-.133.11 0 .137-.041.137-.074 0-.032.156.019.11.046-.045.028.014.083.046.033.033-.051.184.032.147-.042-.036-.073.106-.055.23-.11.124-.055.253-.138.326-.124.073.014.184-.027.179.023-.004.05-.216.138-.326.156-.11.019-.322.188-.4.23-.068.036-.137.11-.05.114.087.005.152-.036.138-.091-.014-.056.312-.22.321-.175.01.046.087.064.198-.064.11-.129.206-.078.202-.032-.005.046.16-.05.151-.133-.01-.083.17.004.074-.12-.097-.124.009-.119.124-.036.032.023.06.066.088.116l.08.156c.04.075.085.137.144.14.138.01.206-.302.28-.293.073.01.02.135.069.16.036.02-.11.134-.01.134.102 0 .203.004.24-.088.036-.091.34-.119.468-.018.128.101.297.133.404.138.11.004.133.064.303.096.17.032.307.078.303.028-.005-.05.23 0 .335.082.106.083.145.174.078.156-.069-.018-.298.097-.234.16.064.065.418.074.61.042.193-.032.294-.018.382-.064.087-.046.119-.005.183.046.065.05.147-.014.138.046-.01.06.037.004.106.06.069.054.11.141.023.169-.088.028.128.138.128.055 0-.02.01-.03.024-.035l.045-.01c.026-.008.04-.026-.018-.11-.115-.17-.143-.267-.023-.285.12-.019.395-.124.34-.18-.056-.054-.147.097-.276.079-.129-.019-.123.064-.193.064-.05 0-.138.014-.092-.087.046-.101.216-.078.303-.133.088-.055.326-.074.34-.014.014.06-.014.16.106.165.12.005.092.092.183.092.092 0 .166-.01.22.05.056.06.198.106.327.078.128-.027.307-.06.404-.05.096.009.197.06.193.005-.005-.056.06-.078.013-.134-.045-.055.019-.087.083-.055.064.032.037-.055.097-.055.06 0-.033-.114-.157-.119-.124-.005-.234-.046-.183-.106.05-.06.179.037.211-.142s.165-.133.239-.055c.073.078.137.074.23.05.091-.022.183.06.123.074-.06.014-.17-.032-.17.032s.101.037.166.014c.064-.023.193.11.115.179-.079.069-.147.018-.24.018-.091 0 .014.097-.11.083-.123-.014-.192-.042-.151.023.041.064.18.078.239.068.06-.009.023.083-.028.161-.05.078.01.142.11.17.102.027.147 0 .11-.078-.036-.078-.087-.22 0-.202.088.018.143.005.203-.083.06-.087.138-.036.142-.123.005-.088-.037-.216-.092-.115-.055.1-.096.133-.1.073-.005-.06.105-.087.063-.165-.04-.078.11-.037.005-.106-.106-.068-.308-.06-.418-.146-.11-.088-.06-.175-.014-.234.046-.06.023-.05-.036-.101-.06-.05-.014-.207.041-.225.055-.019.152.082.17.018.018-.064-.096-.1-.064-.124.032-.023.128-.018.128-.12 0-.1.01-.178-.037-.238-.046-.06-.091-.069-.078-.23.014-.16-.036-.22 0-.238.037-.018.12.06.133.014.014-.046-.091-.083-.055-.124.037-.041.294-.078.432-.069.138.01.174.087.34.074.165-.014.284-.005.215.092-.069.096-.243.367-.298.408-.055.041-.225-.023-.321-.028-.097-.004-.07.05-.014.07.055.017.046.045-.032.132-.078.087-.11.115-.152.11-.041-.004-.023.106.05.092.074-.013.244.138.267.184.023.046-.055.16-.01.183.047.023.185.042.185.11 0 .07.174.07.128.134-.046.064-.115-.01-.12.04-.004.051-.054.143-.008.18.045.037.114-.06.156-.041.04.018.147.082.206.082.06 0 .019.074-.05.083-.07.009-.074.064-.028.087.046.023.014.257.069.248.055-.01.027-.138.092-.165.064-.028.037-.106.078-.147.041-.042.12-.042.193.046.073.087.133.06.137.142.005.082.056.128.005.138-.05.009-.083.031-.087.091-.005.07.073.16.138.216.064.055.068.174.114.092.046-.083.161-.032.147-.101-.013-.069-.023-.115-.078-.129-.055-.013-.046-.156.028-.16.073-.005.014.17.092.128.078-.041.087-.087.1-.206.014-.12.088-.096.134-.092.046.005-.023-.069.036-.092.06-.023.005-.096-.064-.1-.069-.005-.064-.193-.018-.198.046-.005.239-.014.326.027.087.042.23-.004.234.065.005.069.073.11.156.11s.152.046.069.092c-.083.046.096.06.055.124s-.115.091-.206.073c-.092-.018-.078.05-.005.087.073.037-.005.092.069.147.073.055.16.138.1.225-.059.087-.068.023-.118.078-.051.055-.097.11-.189.142-.092.032-.125.103-.179-.004-.037-.074-.11-.06-.142-.124-.032-.065-.142.013-.037.055.106.041.18.147.115.147-.064 0-.193.055-.22.022-.028-.032-.06-.096-.134-.096-.073 0-.21.028-.16.069.05.041.193.064.119.12-.073.054-.225.229-.312.224-.087-.004-.317-.193-.413-.202-.097-.009-.106.046-.014.115s.188.133.358.12c.17-.014.248.04.16.1-.087.06-.188.276-.293.303-.106.028-.29-.1-.308-.05-.018.05.046.174-.05.179-.097.004-.129.009-.248-.037-.12-.046-.446-.133-.469-.083-.022.05.326.055.326.143 0 .087.276.009.299.114.023.106-.133.143-.239.143-.105 0-.142.013-.096.06.046.045-.037.008-.05.064-.015.055-.02.082-.088.091-.069.01-.014.143-.083.16-.069.02-.147.051-.147.12s-.12.234-.142.344c-.023.11-.018.372.01.39.027.019.132.07.229.055.096-.013.128.088.151.18.023.091.115.229.092.261-.023.032-.06.106-.027.101.032-.005.224-.087.307-.092.083-.004.22.12.276.11.055-.009.192.014.225.055.032.042.174.074.188.115.014.042.078.115.22.152.143.036.248.105.285.137.037.032.1.05.216.042.115-.01.23.018.312.018.083 0 .142.078.115.129-.028.05-.055.11-.023.165.032.055.013.243.013.316 0 .074.143.12.143.184s.064.078.147.142c.082.064.041.147.073.142.032-.004.175.115.175.065s.055-.17.115-.129c.06.041.096.087.091.01-.004-.078-.1-.046-.032-.106.07-.06.106-.092.046-.175-.06-.082-.018-.156-.06-.247-.04-.092.023-.12-.055-.207s-.11-.197-.055-.202c.055-.004.175.014.29-.105.114-.12.27-.152.293-.29.023-.137.028-.33-.046-.454-.073-.124-.261-.202-.312-.248-.05-.046.005-.124.069-.197.064-.074.014-.129.06-.142.046-.014.096.009.082-.101-.013-.11-.06-.106-.082-.188-.023-.083-.065-.074-.065-.115 0-.041.06-.037.065-.097.004-.06.073-.036.05-.1-.023-.065-.12-.046-.133-.143-.014-.096.078-.11.087-.151.01-.042.161-.032.276 0 .115.032.124.087.165.055.041-.032.147.05.188.032.042-.018.134-.078.207-.069.073.01.092.069.147.074.055.004.087.027.087.082 0 .055.074-.004.101.074.028.078.087.036.097.119.009.083.188.092.247.087.06-.004.06.083.115.046.055-.036.11-.036.11.01 0 .045-.078.054-.068.174.009.119.073.192.023.234-.051.041.105.073.082.142-.023.069.032.078.11.073.078-.004.07.138.12.101.05-.036.05.087.11.092.06.005.207-.055.207-.12 0-.064.087-.082.124-.018.036.065.004-.078.073-.078.069 0 0-.068.041-.114.042-.046.084-.049.028-.124-.028-.037.069-.032.096-.143.028-.11.065-.146.092-.068.028.078.101.124.106.188.004.064.142.174.142.23 0 .054.083.114.078.155-.005.042.073.074.078.12.005.045.143.105.133.151-.009.046-.009.106.028.11.037.005.11.046.083.092-.028.046-.101.138-.166.092-.064-.046-.142.018-.023.055.12.037.317.18.35.266.031.088.073.147.146.101.074-.046.06.07.124.023.064-.046.133.115.234.092.101-.023.184.046.152.096s-.124.019-.23.087c-.105.07-.147.014-.188.07-.041.054-.073.013-.12.05-.045.037-.045.174.051.082.096-.091.087.005.197-.087.11-.091.248-.124.322-.078.073.046-.074.156.014.165.087.01.133-.142.22-.027.087.115.138.078.11.16-.027.083-.06.12-.124.124-.064.005-.004.046.06.06.064.014.092.037.018.087-.073.05-.142.184-.289.175-.147-.01-.225-.01-.285.082-.06.092-.266.234-.371.23-.106-.005-1.203-.019-1.295.064-.092.083-.138.124-.152.184-.013.06-.12-.01-.215.064-.097.073-.24.293-.29.27-.05-.023-.004.037-.041.097-.037.06-.275.216-.188.216.087 0 .289-.294.45-.386.16-.092.794-.33.895-.147.101.184-.096.225-.202.266-.106.042-.06.156.018.083s.175-.028.092.069c-.083.096.019.124.028.21.009.088.216.12.225.184.009.065.294.101.367.065.073-.037.087.02.087-.087 0-.037.101-.06.106-.12.004-.06.151-.133.142-.082-.009.05-.06.151.005.142.064-.01.151.032.077.082-.073.05-.275.05-.275.101 0 .05.073.07-.041.106-.115.036-.377.133-.478.128-.1-.004-.096.083-.197.17-.101.087-.198.115-.271.05-.073-.064-.106-.1.023-.229.128-.129.17-.142.266-.138.097.005.285-.045.156-.04-.128.004-.261-.051-.188-.074.074-.023.023-.156-.014-.088-.036.07-.16.18-.243.175-.049-.003-.135.038-.217.09l-.084.058z" transform="translate(-436 -1366) translate(424 1263) translate(12 103)"/>
                </g>
            </g>
        </g>
    </g>
</svg>
