<svg xmlns="http://www.w3.org/2000/svg" width="24" height="24" viewBox="0 0 24 24">
    <g fill="none" fill-rule="evenodd">
        <g>
            <g>
                <g>
                    <g>
                        <path fill="#229E45" d="M0 0L24 0 24 18 0 18z" transform="translate(-436.000000, -1498.000000) translate(424.000000, 1263.000000) translate(12.000000, 235.000000) translate(0.000000, 3.000000)"/>
                        <path fill="#F8E509" d="M12.053 16.35L23.359 9.011 11.985 1.65 0.641 9.026z" transform="translate(-436.000000, -1498.000000) translate(424.000000, 1263.000000) translate(12.000000, 235.000000) translate(0.000000, 3.000000)"/>
                        <path fill="#2B49A3" d="M16.98 9c0 2.636-2.141 4.774-4.785 4.774-2.638-.004-4.773-2.146-4.77-4.784.003-2.638 2.144-4.774 4.782-4.771 2.639.003 4.775 2.143 4.773 4.781z" transform="translate(-436.000000, -1498.000000) translate(424.000000, 1263.000000) translate(12.000000, 235.000000) translate(0.000000, 3.000000)"/>
                        <path fill="#FFFFEF" d="M10.624 11.861l-.15-.086-.15.075.034-.169-.12-.127.168-.019.083-.15.071.158.165.03-.124.112m3.225.986l-.146-.086-.15.075.03-.169-.116-.123.168-.02.08-.153.074.157.165.03-.127.117m-1.358-1.125l-.127-.075-.132.067.03-.146-.104-.109.15-.015.067-.135.06.139.146.026-.112.101m3.262-.318l-.127-.075-.131.067.03-.146-.102-.105.146-.015.068-.131.06.135.143.026-.11.098m-3.273-.825l-.15-.083-.15.075.03-.172-.116-.124.168-.019.08-.154.074.158.165.03-.127.12M8.44 8.456l-.15-.082-.15.075.038-.173-.124-.123.172-.02.075-.153.075.157.165.03-.123.117m.498 2.145l-.15-.087-.15.075.034-.168-.12-.124.169-.023.079-.15.075.158.165.03-.124.116m4.95-2.524l-.135-.075-.135.068.03-.15-.105-.112.15-.02.071-.134.064.142.15.027-.113.1m-.25 1.437l-.102-.06-.109.053.023-.12L13.3 8.8l.12-.015.056-.105.05.113.112.018-.083.083m-5.332 1.89l-.101-.056-.102.049.023-.113-.079-.082.113-.015.052-.102.049.105.112.023-.086.075m7.508.573l-.083-.04-.083.037.02-.087-.065-.06.09-.01.045-.076.038.075.094.019-.072.056" transform="translate(-436.000000, -1498.000000) translate(424.000000, 1263.000000) translate(12.000000, 235.000000) translate(0.000000, 3.000000)"/>
                        <path fill="#FFFFEF" d="M8.224 10.785L8.123 10.729 8.021 10.777 8.044 10.665 7.965 10.582 8.078 10.568 8.13 10.466 8.179 10.571 8.291 10.594 8.205 10.669" transform="translate(-436.000000, -1498.000000) translate(424.000000, 1263.000000) translate(12.000000, 235.000000) translate(0.000000, 3.000000)"/>
                        <path fill="#FFFFEF" d="M8.224 10.785l-.101-.056-.102.049.023-.113-.079-.082.113-.015.052-.102.049.105.112.023-.086.075m1.586.112l-.097-.052-.102.049.023-.113-.079-.082.113-.015.052-.102.049.105.113.019-.087.079m-.18.637L9.5 11.25l-.101.053.022-.113-.079-.086.113-.015.052-.101.049.104.113.023-.087.075m3.278-.832l-.098-.06-.105.052.023-.112-.075-.087.112-.011.053-.101.045.105.112.018-.082.08m-.941.112l-.102-.056-.101.052.023-.112-.075-.087.112-.011.053-.105.044.109.113.018-.083.08m-2.58-.218l-.063-.038-.064.03.015-.071-.049-.053.071-.007.03-.064.03.068.072.011-.053.049m6.293 1.702l-.098-.056-.101.053.022-.113-.078-.086.112-.015.053-.101.048.104.113.023-.086.075m-.78.225l-.083-.053-.086.045.019-.097-.064-.067.094-.012.045-.086.037.09.094.015-.071.067m.39.087l-.075-.045-.079.037.015-.086-.06-.064.086-.011.042-.075.037.075.086.019-.063.06m1.09-.855l-.074-.038-.075.038.018-.087-.06-.063.087-.011.037-.075.038.078.078.015-.06.06m-1.454 1.568l-.094-.053-.101.045.022-.105-.075-.075.113-.011.048-.094.045.098.113.019-.086.07m.022.533l-.09-.052-.09.049.023-.105-.072-.075.101-.015.045-.094.042.097.101.019-.075.075m-.713-.866l-.07-.045-.076.037.015-.082-.056-.064.082-.008.038-.075.038.075.082.015-.06.06m-.668.087l-.075-.045-.074.037.018-.082-.06-.064.087-.008.037-.075.037.075.08.015-.06.06m-1.14-.922l-.076-.041-.075.037.019-.086-.06-.06.082-.011.038-.075.038.075.082.018-.06.057m.139 2.137l-.06-.034-.068.034.015-.075-.048-.052.07-.008.034-.064.03.068.072.011-.053.049m-1.732-3.248l-.15-.086-.15.075.034-.168-.12-.124.168-.023.083-.15.071.158.165.03-.124.116" transform="translate(-436.000000, -1498.000000) translate(424.000000, 1263.000000) translate(12.000000, 235.000000) translate(0.000000, 3.000000)"/>
                        <path fill="#FFF" d="M16.665 10.717c.093-.24.166-.489.218-.742C14.34 7.744 11.509 6.6 7.93 6.836c-.13.251-.236.514-.319.784 4.238-.405 7.35 1.47 9.053 3.097z" transform="translate(-436.000000, -1498.000000) translate(424.000000, 1263.000000) translate(12.000000, 235.000000) translate(0.000000, 3.000000)"/>
                        <path fill="#309E3A" fill-rule="nonzero" d="M15.525 9.465l.086.049c-.013.025-.017.054-.011.082.009.027.028.05.053.064.026.019.052.03.074.026.023 0 .038-.011.05-.026.006-.01.008-.022.007-.034-.003-.014-.01-.026-.019-.037-.008-.011-.026-.038-.056-.068-.031-.032-.054-.07-.068-.112-.02-.066.013-.136.075-.165.028-.012.058-.014.087-.008.035.008.068.024.097.045.053.038.086.075.098.12.01.043.002.088-.023.124l-.09-.056c.011-.023.015-.045.008-.064-.004-.019-.02-.037-.046-.053-.019-.015-.042-.024-.067-.026-.014 0-.027.007-.034.019-.007.011-.007.022-.004.037.004.016.023.046.06.083.038.037.06.071.075.094.028.05.023.111-.01.157-.018.026-.043.045-.072.057-.028.012-.06.016-.09.01-.034-.007-.068-.022-.105-.048-.056-.037-.09-.079-.101-.124-.012-.05-.004-.105.022-.15l.004.004zm-.435-.285l.094.049c-.012.026-.015.055-.008.082.01.026.029.047.053.06.03.019.052.027.075.023.022 0 .037-.011.048-.03.006-.01.009-.02.008-.03 0-.011-.008-.027-.019-.038-.019-.023-.039-.045-.06-.067-.041-.041-.067-.075-.075-.105-.012-.04-.007-.082.015-.117.015-.023.035-.04.06-.052.026-.012.055-.016.083-.011.034.006.068.018.097.037.056.038.09.075.101.117.014.042.009.089-.014.127l-.094-.053c.011-.026.015-.045.007-.063-.007-.019-.022-.038-.049-.053-.02-.015-.045-.023-.07-.022-.013 0-.025.008-.03.018-.008.012-.008.023-.005.038.004.015.027.045.064.082.038.038.064.068.075.09.03.049.03.11 0 .158-.016.026-.04.047-.067.06-.028.013-.06.017-.09.011-.039-.006-.076-.02-.109-.041-.048-.026-.086-.069-.105-.12-.014-.05-.01-.104.015-.15zm-.533-.143l.274-.45.33.207-.045.075-.24-.15-.06.101.225.139-.049.075-.225-.139-.074.124.25.15-.044.075-.338-.207h-.004zm-.776-.637l.041-.075.203.101-.094.188c-.03.007-.067.011-.112.007-.043-.005-.085-.017-.124-.037-.045-.022-.084-.056-.113-.098-.025-.039-.038-.084-.037-.131.002-.048.015-.096.037-.139.023-.045.057-.084.098-.112.04-.028.087-.042.135-.041.037 0 .075.01.12.037.06.026.098.064.116.105.02.04.024.088.011.131l-.1-.03c.005-.025.003-.051-.008-.075-.011-.022-.03-.037-.06-.052-.036-.02-.078-.025-.117-.011-.037.01-.07.045-.097.097-.026.053-.037.101-.026.143.01.04.038.072.075.09.019.01.041.018.064.018.022.004.045.004.067 0l.03-.06-.109-.056zM10.4 7.564l.075-.525.157.026.041.367.147-.337.157.022-.075.518-.101-.015.064-.409-.165.394-.101-.015-.042-.424-.06.413-.097-.015zM9.87 7.5l.049-.525.386.038-.008.09-.28-.027-.012.113.262.026-.01.09-.263-.026-.011.142.292.026-.008.09L9.87 7.5z" transform="translate(-436.000000, -1498.000000) translate(424.000000, 1263.000000) translate(12.000000, 235.000000) translate(0.000000, 3.000000)"/>
                        <g fill-rule="nonzero">
                            <path fill="#309E3A" d="M.002.496c0-.104.022-.18.051-.248C.08.198.114.155.156.117.194.081.24.053.29.034.363.014.436 0 .51 0 .665 0 .783.055.88.138c.092.106.134.242.117.378C.996.668.945.792.85.881.75.967.616 1.01.481.998.348 1 .22.95.127.86.035.76-.01.628.002.496z" transform="translate(-436.000000, -1498.000000) translate(424.000000, 1263.000000) translate(12.000000, 235.000000) translate(0.000000, 3.000000) translate(8.117858, 6.903750)"/>
                            <path fill="#F7FFFF" d="M.215.496c0 .103.023.186.074.247.052.056.118.09.206.09C.573.838.65.81.702.757.753.702.775.62.782.503.783.393.769.31.71.255.66.199.587.165.51.165.432.163.356.193.304.248.244.303.223.385.215.496z" transform="translate(-436.000000, -1498.000000) translate(424.000000, 1263.000000) translate(12.000000, 235.000000) translate(0.000000, 3.000000) translate(8.117858, 6.903750)"/>
                        </g>
                        <g fill-rule="nonzero">
                            <path fill="#309E3A" d="M0 .986L.016 0h.476c.12 0 .198.014.254.035.056.014.095.05.127.092.032.042.048.098.048.162C.92.356.893.422.84.472.783.52.707.55.627.556l.119.085c.032.028.071.084.12.162L1 1H.73L.571.775.461.634C.44.614.415.6.388.592.353.582.315.577.278.577H.23v.409H0z" transform="translate(-436.000000, -1498.000000) translate(424.000000, 1263.000000) translate(12.000000, 235.000000) translate(0.000000, 3.000000) translate(8.737500, 6.918750)"/>
                            <path fill="#FFF" d="M.238.423h.159c.11 0 .182 0 .206-.015.024 0 .048-.02.064-.035C.683.36.69.323.69.303.69.26.683.233.66.218.643.198.61.183.579.176H.421L.238.17v.254z" transform="translate(-436.000000, -1498.000000) translate(424.000000, 1263.000000) translate(12.000000, 235.000000) translate(0.000000, 3.000000) translate(8.737500, 6.918750)"/>
                        </g>
                        <g fill-rule="nonzero">
                            <path fill="#309E3A" d="M.058 0L.49.021c.092 0 .166.007.216.021.065.02.122.053.166.098.048.049.082.106.1.168.025.063.033.14.025.23 0 .072-.014.143-.042.21-.033.07-.083.126-.14.168C.764.95.708.974.647.986.598 1 .523 1 .44 1L0 .979.058 0z" transform="translate(-436.000000, -1498.000000) translate(424.000000, 1263.000000) translate(12.000000, 235.000000) translate(0.000000, 3.000000) translate(9.311250, 6.945000)"/>
                            <path fill="#FFF" d="M.282.175l-.041.65h.316C.598.825.63.811.657.79.68.77.706.741.722.7.739.656.756.593.756.516c0-.076 0-.132-.008-.174C.736.306.713.273.68.245.654.22.62.205.581.195.52.185.456.178.392.176H.281z" transform="translate(-436.000000, -1498.000000) translate(424.000000, 1263.000000) translate(12.000000, 235.000000) translate(0.000000, 3.000000) translate(9.311250, 6.945000)"/>
                        </g>
                        <g fill-rule="nonzero">
                            <path fill="#309E3A" d="M0 .951L.257 0 .6.07l.25.07c.054.028.1.07.124.133.031.056.031.119.016.196C.974.524.95.573.912.609.854.67.768.705.678.705.623.706.546.692.444.671L.312.636.218 1 0 .951z" transform="translate(-436.000000, -1498.000000) translate(424.000000, 1263.000000) translate(12.000000, 235.000000) translate(0.000000, 3.000000) translate(11.910000, 7.372500)"/>
                            <path fill="#FFF" d="M.42.21L.359.476l.117.027c.078.014.14.028.172.021C.709.517.759.474.772.42c0-.035 0-.063-.016-.091C.739.3.711.278.678.266L.53.23.429.21H.42z" transform="translate(-436.000000, -1498.000000) translate(424.000000, 1263.000000) translate(12.000000, 235.000000) translate(0.000000, 3.000000) translate(11.910000, 7.372500)"/>
                        </g>
                        <g fill-rule="nonzero">
                            <path fill="#309E3A" d="M0 .759L.328 0l.385.115c.104.029.167.057.21.08.034.03.062.058.069.104.007.046.014.086 0 .132C.964.489.922.529.866.557.81.58.74.587.656.575c.029.028.057.057.07.092l.056.155L.824 1 .608.937.538.73C.525.683.508.637.489.592.479.574.465.558.447.546.433.529.405.517.357.506L.32.494l-.14.322L0 .76z" transform="translate(-436.000000, -1498.000000) translate(424.000000, 1263.000000) translate(12.000000, 235.000000) translate(0.000000, 3.000000) translate(12.397500, 7.533750)"/>
                            <path fill="#FFF" d="M.377.374l.133.04c.09.029.147.04.175.04.02 0 .041 0 .062-.017C.768.425.782.408.79.385.803.362.803.34.79.316.78.294.76.276.733.264l-.14-.04-.139-.04-.084.19h.007z" transform="translate(-436.000000, -1498.000000) translate(424.000000, 1263.000000) translate(12.000000, 235.000000) translate(0.000000, 3.000000) translate(12.397500, 7.533750)"/>
                        </g>
                        <g fill-rule="nonzero">
                            <path fill="#309E3A" d="M.033.368C.058.288.1.214.156.15.192.109.236.074.286.048.335.02.385.007.428 0c.072 0 .144 0 .223.027.13.03.24.113.303.225.057.11.057.239.014.388C.934.77.846.88.724.947c-.108.061-.237.068-.374.027C.22.943.11.861.048.75-.01.63-.016.492.033.368z" transform="translate(-436.000000, -1498.000000) translate(424.000000, 1263.000000) translate(12.000000, 235.000000) translate(0.000000, 3.000000) translate(12.995123, 7.807500)"/>
                            <path fill="#FFF" d="M.235.422c-.029.103-.036.191 0 .26C.27.748.32.79.4.817.472.838.544.83.616.79.688.756.732.681.768.572.804.47.804.388.768.32.738.255.68.205.609.184.538.16.46.168.393.204.321.245.271.314.235.422z" transform="translate(-436.000000, -1498.000000) translate(424.000000, 1263.000000) translate(12.000000, 235.000000) translate(0.000000, 3.000000) translate(12.995123, 7.807500)"/>
                        </g>
                        <g fill-rule="nonzero">
                            <path fill="#309E3A" d="M0 .681L.421 0 .77.148C.835.175.895.21.947.253.98.28 1 .313 1 .357S1 .44.974.478C.948.528.9.567.842.588.776.598.711.598.638.577.664.61.678.643.691.67c.013.033.02.083.026.154L.73 1 .533.918.507.714C.503.668.497.622.487.577.482.557.47.537.454.522L.375.484.342.467.164.753 0 .68z" transform="translate(-436.000000, -1498.000000) translate(424.000000, 1263.000000) translate(12.000000, 235.000000) translate(0.000000, 3.000000) translate(14.036250, 8.276250)"/>
                            <path fill="#FFF" d="M.408.357l.125.055c.079.033.131.055.151.055.02 0 .046 0 .066-.011C.77.451.783.434.796.412.81.39.816.368.81.346.803.33.79.308.763.291.725.271.685.253.645.236L.513.181.408.357z" transform="translate(-436.000000, -1498.000000) translate(424.000000, 1263.000000) translate(12.000000, 235.000000) translate(0.000000, 3.000000) translate(14.036250, 8.276250)"/>
                        </g>
                        <g fill-rule="nonzero">
                            <path fill="#309E3A" d="M.104.246C.15.176.21.116.28.07c.047-.03.1-.05.154-.061.051-.01.104-.01.155 0 .07.013.133.04.196.081.11.067.186.176.21.3C1.015.507.98.636.896.766.826.878.712.959.58.99.454 1.017.32.99.216.915.106.848.03.739.006.615-.015.492.02.369.104.246z" transform="translate(-436.000000, -1498.000000) translate(424.000000, 1263.000000) translate(12.000000, 235.000000) translate(0.000000, 3.000000) translate(15.923061, 9.565833)"/>
                            <path fill="#FFF" d="M.28.356C.21.444.187.526.201.6c.01.07.051.132.112.17.07.048.14.062.21.042.07-.02.14-.069.204-.164C.79.553.818.472.805.403.798.335.755.273.693.226.63.178.553.17.483.192.412.205.342.26.272.356h.006z" transform="translate(-436.000000, -1498.000000) translate(424.000000, 1263.000000) translate(12.000000, 235.000000) translate(0.000000, 3.000000) translate(15.923061, 9.565833)"/>
                        </g>
                        <path fill="#309E3A" fill-rule="nonzero" d="M11.318 7.669L11.404 7.301 11.674 7.365 11.662 7.425 11.464 7.38 11.445 7.463 11.629 7.504 11.614 7.567 11.43 7.522 11.408 7.624 11.614 7.673 11.599 7.732 11.318 7.669z" transform="translate(-436.000000, -1498.000000) translate(424.000000, 1263.000000) translate(12.000000, 235.000000) translate(0.000000, 3.000000)"/>
                    </g>
                </g>
            </g>
        </g>
    </g>
</svg>
