<svg xmlns="http://www.w3.org/2000/svg" width="24" height="24" viewBox="0 0 24 24">
    <g fill="none" fill-rule="evenodd">
        <g fill="#98A0A7">
            <g>
                <g>
                    <path d="M15.824 6.625c.294.006.564.028.683.067.047.015.147.011.277-.007.032.054.052.111.043.172-.033.243.287.365.552.266.266-.1.443-.122.266.132s.155.464.387.287c.232-.176.574-.574.84-.487.265.089.552-.319.662-.176.111.144-.353.431-.065.431.287 0 .408.066.442.243.008.049.032.078.062.092-.005.033-.006.064.003.09.05.133.1.597-.016.78-.116.182-.066.231.05.297.116.067.166.232.166.365 0 .132.083.116.1.398.016.281.082.48.182.596.098.116.05.315-.017.414-.066.1-.298-.083-.398.017-.1.1-.431.116-.613.282-.183.166-.564.248-.78.298-.215.05-.032.248.05.398.083.148.083.514.249.63.114.08.41.27.605.419.103-.061.244-.109.286-.164.23.062.589.063.65-.04.075-.123.124-.346.124-.346s.494 0 .692.223c.197.221.567.074.567.074s.123.382.294.621c-.06.057-.1.123-.1.2 0 .224-.173.207-.328.189-.156-.017 0 .19-.087.294-.087.104 0 .311-.121.328-.065.01-.1.084-.121.176l-.003-.002c-.05-.017-.215.165-.514.165-.298 0-.513.233-.646.233-.132 0-.547-.133-.828-.15-.283-.016-.598-.05-.68-.1-.011-.005-.02-.015-.03-.028l.01.016.037.04c.053.033.204.058.38.076-.028.25-.058.637-.04.99-.225.09-.415.247-.329.426.154.32-.188.364-.011.75.177.387.884.421 1.05 1.072.165.652.707 1.216 1.16 1.193.453-.022.265.266.552.442.287.177 1.503.674 1.482 1.05-.022.375-.177.21-.563-.034-.387-.243-.796.022-.718.32.076.3.518.354.342.586-.177.233-.399.221-.432.442-.033.22-.265.619-.375.619-.11 0-.2-.375-.033-.596.165-.221.12-.62-.034-.807-.154-.187.011-.409-.243-.442-.254-.033-.265-.32-.53-.442-.266-.121-.486-.232-.652-.43-.166-.2-.442-.166-.719-.31-.276-.144-.486-.53-1.017-.872-.53-.342-.673-.719-.707-.906-.033-.188-.077-.21-.232-.443-.155-.232-.663-.552-1.05-.442-.387.111-.287.322-.52.442-.064.034-.128.05-.195.066-.021.05-.04.102-.045.153-.134.039-.284.11-.468.305-.365.387-.653.42-.863.287-.21-.132-1.006-.353-1.37-.298-.365.055-.752.31-.62.74.022.07.035.132.046.192l-.014-.065h.078c.048.282-.022.469-.228.586l-.083.04c-.321.133-.443.388-.819.431-.375.045-.685.132-.685.365 0 .255-.32.276-.62.73-.298.452.024.96-.01 1.093-.033.132-.53.398-.552.575-.022.176.022.485-.276.53-.299.044-.52.21-.586.397-.066.188-.276.276-.542.265-.265-.012-.53.023-.95.033-.42.01-.509.266-.685.266-.177 0-.342-.067-.431.02-.089.09 0 .222-.177.245-.418.051-.597-.719-.906-.862-.125-.058-.26-.054-.398-.03-.06-.092-.108-.182-.108-.242 0-.162 0-.404.296-.458.295-.053-.081-.295-.162-.376-.08-.08.027-.403.188-.403s0-.188-.215-.404c-.215-.215 0-.295.189-.295.187 0-.054-.323.133-.512.189-.188-.054-.536-.054-.698 0-.16.27-.215.485-.43.215-.215-.188-.135-.188-.296 0-.09-.083-.146-.19-.155.097.008.18.065.18.155 0 .16.404.08.189.295-.216.215-.485.27-.485.43 0 .161.242.51.054.699-.188.188.054.511-.134.511-.189 0-.404.08-.189.295.216.216.377.404.216.404-.162 0-.27.323-.188.403.08.08.457.323.161.376C4 22.46 4 22.701 4 22.862c0 .06.048.15.109.243-.205.036-.413.118-.597.118-.31 0-.575.055-.575-.144 0-.199.199-1.038-.1-1.27-.297-.232-.574-.32-.287-.652s.608-1.557.465-1.79c-.062-.1-.04-.295-.02-.506l.009-.001c.026-.28.047-.584-.135-.728-.32-.255-.276-.53.166-.542.442-.011.31-.386.619-.386.31 0 .343.276.906.232.217-.017.565-.01.936.002l.45.017c.449.016.87.028 1.08.003.424-.053 1.068.184 1.292.14l.027.014c.168-.208.357-1.033.307-1.305-.056-.299.22-.652.11-.894-.11-.244.166-.487-.199-.586-.364-.1-.574-.365-.585-.64-.011-.277-.055-.189-.243-.332-.189-.144-.277.021-.653-.177-.375-.2-.883-.177-.994-.32-.11-.145.055-.299-.088-.465-.144-.165.077-.386.464-.353.386.033.486-.165.73-.076.242.087.253.363.452.22.2-.144.51.144.653.033.143-.11.154-.508-.1-.796-.254-.286.343-.529.431-.286.088.243.752.464.94.32.187-.144.032-.497.486-.53.452-.033.817-.078.774-.519-.045-.442.187-.652.452-.641.056.003.112-.005.169-.016.017.023.04.029.058.038.103-.04.204-.095.302-.151l.06.027c.238-.151.542-.392.52-.651-.022-.287.366-.375.343-.607-.02-.232.31-.355.344-.177.033.177.474.11.353-.022-.121-.133-.022-.453.31-.52.332-.066.585-.121.751-.022.1.06.16.004.188-.075.06.213.086.41.023.507-.178.264-.42.287-.377.352.045.067.31.288.244.398-.066.111-.155.045-.155.243 0 .1-.077.15-.168.174.097-.023.181-.073.181-.176 0-.199.089-.133.155-.243.067-.11-.199-.332-.244-.398-.043-.066.2-.088.377-.353.063-.096.037-.293-.022-.507.02-.052.027-.113.023-.157-.011-.11.43-.154.563-.089.133.067.541.255.553.078.011-.177.464-.022.32-.298-.144-.276-.298-.453-.2-.641.054-.1-.04-.225-.129-.354zm4.556 15.543c.452-.099.63-.011.596.043-.033.056-.364.398-.309.697.055.298.033.519-.199.508-.232-.011-.298-.387-.851-.53-.552-.144-.73-.298-.774-.42-.064-.177.365-.43.63-.298.266.132.453.1.907 0zm-4.277-2.507c.243-.21.785-.056.685.276-.1.331.022 1.027-.122 1.214-.054.071-.104.098-.16.118l-.12.04c-.067.026-.144.068-.24.163-.253.254-.408-.287-.309-.718.1-.43-.397-.75-.275-.96.098-.17.298.077.54-.133zm-4.624 1.398c-.163-.11.596-.597.652-.221.055.376-.32.442-.652.22zm5.164-3.117c.12.011.165 1.348-.156 1.392-.306.042-.618-.806-.308-.994.308-.189.342-.409.464-.398zM6.716 2.37c.144-.11.166-.442.332-.299.166.144-.133.287-.111.442.022.155-.376.541-.564.618-.188.078.033.354.254.244.222-.111 1.382-.122 1.382.066 0 .187-.31 1.126-.575 1.303-.265.176-.43.497-.265.486.165-.01.486-.132.674.11.187.243.43.09.497.377.067.287.122.817.498.905.375.089.597.796.564.906-.034.11.12.386.243.408.12.023-.112.21.01.41.122.198.288.22.365.043.078-.176.807.055.785.387-.022.331-.387.497-.619.718-.232.22-.276.475-.055.441.22-.032.486 0 .32.155-.166.155-.796.442-1.038.43-.244-.01-.73.078-.84.156-.112.077-.465-.254-.597-.144-.133.11-.32.21-.586.166-.265-.044-.398.11-.541.077-.144-.033-.155.354-.332.331-.177-.022-.232-.242-.553-.11-.32.133-.452.43-.552.31-.17-.208.73-1.05.95-1.172.221-.121.586.078.83-.11.242-.188.253-.31-.067-.188-.32.121-.498-.11-.785-.11-.287 0-.243-.243-.442-.1-.2.144-.707-.188-.287-.31.42-.121.729-.33.718-.507-.011-.177-.42-.144-.442-.287-.023-.144.298-.31.221-.465-.078-.154.21-.232.232-.121.022.11.708.132.763-.033.055-.166-.033-.497.066-.674.1-.176.022-.198-.199-.276-.222-.077-.299-.265-.122-.464.177-.198.056-.486-.199-.22-.254.265-1.05.265-1.072.1-.022-.167.387-.52.266-.752-.122-.233.089-.498-.055-.52-.144-.021-.033.52-.431.586-.398.066-.144-.541-.31-.453-.165.088-.53.398-.53.188 0-.21.641-.243.619-.464-.023-.22-.453-.088-.398-.398.055-.308.563-.518.275-.551-.287-.034-.762-.266-.54-.443.22-.177.342.066.452.166.11.1.254-.033.187-.21-.065-.177.344-.298.333-.508-.011-.21.121-.696.464-.63.343.067.663.1.807-.01zm-3.46 3.719c.01-.276.443-.276.752-.155.03.012.061.016.092.016-.014.066-.032.126-.05.179.24-.103.498-.297.71-.092.309.298.64.618.42.84-.083.082-.2.132-.306.177 0 .017.006.038.017.062.133.265.344 1.558 0 1.735-.342.176-.541-.166-.917.187s-1.017.53-1.293.53c-.387 0-.829-.397-.74-.596.088-.199.497-.188.497-.486s.53-.365.199-.63c-.332-.265-.542-.253-.343-.53.2-.276-.354-.431-.088-.563.265-.133.542.166.795-.012.255-.177.62-.132.608-.31-.01-.175-.364-.076-.353-.352zm1.37-3.538l.035.017c.143.144-.2.652-.498.663-.222.008.354-.807.498-.663zM8.562.006c.287-.077.066.64-.122.828-.082.082-.166-.75.122-.828z" transform="translate(-436.000000, -1399.000000) translate(424.000000, 1263.000000) translate(12.000000, 136.000000)"/>
                </g>
            </g>
        </g>
    </g>
</svg>
