<svg xmlns="http://www.w3.org/2000/svg" width="24" height="24" viewBox="0 0 24 24">
    <g fill="none" fill-rule="evenodd">
        <g fill-rule="nonzero">
            <g>
                <g>
                    <path fill="#E30A17" d="M0 3L24 3 24 21 0 21z" transform="translate(-436.000000, -1630.000000) translate(424.000000, 1263.000000) translate(12.000000, 367.000000)"/>
                    <path fill="#FFF" d="M15.262 12.281c0 2.483-2.047 4.496-4.575 4.496-2.527 0-4.574-2.013-4.574-4.5 0-2.486 2.047-4.492 4.574-4.492 2.528 0 4.575 2.014 4.575 4.496z" transform="translate(-436.000000, -1630.000000) translate(424.000000, 1263.000000) translate(12.000000, 367.000000)"/>
                    <path fill="#E30A17" d="M15.488 12.281c0 1.988-1.636 3.596-3.657 3.596s-3.66-1.612-3.66-3.6c0-1.987 1.639-3.592 3.66-3.592s3.66 1.609 3.66 3.596h-.003z" transform="translate(-436.000000, -1630.000000) translate(424.000000, 1263.000000) translate(12.000000, 367.000000)"/>
                    <path fill="#FFF" d="M16.151 10.181L16.114 11.842 14.565 12.262 16.095 12.806 16.058 14.332 17.051 13.14 18.559 13.665 17.689 12.386 18.75 11.115 17.119 11.565 16.151 10.178z" transform="translate(-436.000000, -1630.000000) translate(424.000000, 1263.000000) translate(12.000000, 367.000000)"/>
                </g>
            </g>
        </g>
    </g>
</svg>
